<?xml version="1.0" encoding="UTF-8" standalone="no"?>
<!DOCTYPE svg PUBLIC "-//W3C//DTD SVG 1.1//EN"
 "http://www.w3.org/Graphics/SVG/1.1/DTD/svg11.dtd">
<!-- Generated by graphviz version 2.38.0 (20140413.2041)
 -->
<!-- Title: %3 Pages: 1 -->
<svg width="919pt" height="625pt"
 viewBox="0.00 0.00 919.00 625.00" xmlns="http://www.w3.org/2000/svg" xmlns:xlink="http://www.w3.org/1999/xlink">
<g id="graph0" class="graph" transform="scale(1 1) rotate(0) translate(4 621)">
<title>%3</title>
<polygon fill="white" stroke="none" points="-4,4 -4,-621 915,-621 915,4 -4,4"/>
<!-- use_kerb -->
<g id="node1" class="node"><title>use_kerb</title>
<g id="a_node1"><a xlink:href="../win_kerberos.html" xlink:title="Kerberos">
<polygon fill="none" stroke="black" points="71,-36 0,-36 0,-0 71,-0 71,-36"/>
<text text-anchor="middle" x="35.5" y="-14.3" font-family="Inconsolata" font-size="14.00">Kerberos</text>
</a>
</g>
</g>
<!-- use_kerb_delegation -->
<g id="node2" class="node"><title>use_kerb_delegation</title>
<polygon fill="none" stroke="black" points="268,-36 89,-36 89,-0 268,-0 268,-36"/>
<text text-anchor="middle" x="178.5" y="-14.3" font-family="Inconsolata" font-size="14.00">Kerberos with delegation</text>
</g>
<!-- use_credssp -->
<g id="node3" class="node"><title>use_credssp</title>
<polygon fill="none" stroke="black" points="756.5,-36 692.5,-36 692.5,-0 756.5,-0 756.5,-36"/>
<text text-anchor="middle" x="724.5" y="-14.3" font-family="Inconsolata" font-size="14.00">Credssp</text>
</g>
<!-- use_credssp_delegation -->
<g id="node4" class="node"><title>use_credssp_delegation</title>
<polygon fill="none" stroke="black" points="458.5,-36 286.5,-36 286.5,-0 458.5,-0 458.5,-36"/>
<text text-anchor="middle" x="372.5" y="-14.3" font-family="Inconsolata" font-size="14.00">Credssp with delegation</text>
</g>
<!-- use_ntlm -->
<g id="node5" class="node"><title>use_ntlm</title>
<polygon fill="none" stroke="black" points="625.5,-36 571.5,-36 571.5,-0 625.5,-0 625.5,-36"/>
<text text-anchor="middle" x="598.5" y="-14.3" font-family="Inconsolata" font-size="14.00">Ntlm</text>
</g>
<!-- use_basic -->
<g id="node6" class="node"><title>use_basic</title>
<polygon fill="none" stroke="black" points="530.5,-36 476.5,-36 476.5,-0 530.5,-0 530.5,-36"/>
<text text-anchor="middle" x="503.5" y="-14.3" font-family="Inconsolata" font-size="14.00">Basic</text>
</g>
<!-- use_certificates -->
<g id="node7" class="node"><title>use_certificates</title>
<polygon fill="none" stroke="black" points="872.5,-36 774.5,-36 774.5,-0 872.5,-0 872.5,-36"/>
<text text-anchor="middle" x="823.5" y="-14.3" font-family="Inconsolata" font-size="14.00">Certificates</text>
</g>
<!-- start -->
<g id="node8" class="node"><title>start</title>
<path fill="none" stroke="black" d="M405,-617C405,-617 142,-617 142,-617 136,-617 130,-611 130,-605 130,-605 130,-576 130,-576 130,-570 136,-564 142,-564 142,-564 405,-564 405,-564 411,-564 417,-570 417,-576 417,-576 417,-605 417,-605 417,-611 411,-617 405,-617"/>
<text text-anchor="middle" x="273.5" y="-601.8" font-family="Inconsolata" font-size="14.00">Answer these questions to work out the </text>
<text text-anchor="middle" x="273.5" y="-586.8" font-family="Inconsolata" font-size="14.00">best settings for connecting to Windows </text>
<text text-anchor="middle" x="273.5" y="-571.8" font-family="Inconsolata" font-size="14.00">hosts in your environment</text>
</g>
<!-- ad -->
<g id="node9" class="node"><title>ad</title>
<path fill="none" stroke="black" d="M351,-527C351,-527 196,-527 196,-527 190,-527 184,-521 184,-515 184,-515 184,-456 184,-456 184,-450 190,-444 196,-444 196,-444 351,-444 351,-444 357,-444 363,-450 363,-456 363,-456 363,-515 363,-515 363,-521 357,-527 351,-527"/>
<text text-anchor="middle" x="273.5" y="-511.8" font-family="Inconsolata" font-size="14.00">Do you have an existing</text>
<text text-anchor="middle" x="273.5" y="-496.8" font-family="Inconsolata" font-size="14.00">Active Directory domain </text>
<text text-anchor="middle" x="273.5" y="-481.8" font-family="Inconsolata" font-size="14.00">that your windows hosts</text>
<text text-anchor="middle" x="273.5" y="-466.8" font-family="Inconsolata" font-size="14.00">and users</text>
<text text-anchor="middle" x="273.5" y="-451.8" font-family="Inconsolata" font-size="14.00">will be members of?</text>
</g>
<!-- start&#45;&gt;ad -->
<g id="edge1" class="edge"><title>start&#45;&gt;ad</title>
<path fill="none" stroke="black" d="M273.5,-563.774C273.5,-555.722 273.5,-546.537 273.5,-537.378"/>
<polygon fill="black" stroke="black" points="277,-537.11 273.5,-527.11 270,-537.11 277,-537.11"/>
</g>
<!-- ad_delegation -->
<g id="node10" class="node"><title>ad_delegation</title>
<path fill="none" stroke="black" d="M341,-259C341,-259 112,-259 112,-259 106,-259 100,-253 100,-247 100,-247 100,-203 100,-203 100,-197 106,-191 112,-191 112,-191 341,-191 341,-191 347,-191 353,-197 353,-203 353,-203 353,-247 353,-247 353,-253 347,-259 341,-259"/>
<text text-anchor="middle" x="226.5" y="-243.8" font-family="Inconsolata" font-size="14.00">Do you need to delegate credentials</text>
<text text-anchor="middle" x="226.5" y="-228.8" font-family="Inconsolata" font-size="14.00">(this enables ansible&#45;managed </text>
<text text-anchor="middle" x="226.5" y="-213.8" font-family="Inconsolata" font-size="14.00">windows hosts to access remote </text>
<text text-anchor="middle" x="226.5" y="-198.8" font-family="Inconsolata" font-size="14.00">SMB/CIFS file shares &amp; printers)?</text>
</g>
<!-- ad&#45;&gt;ad_delegation -->
<g id="edge3" class="edge"><title>ad&#45;&gt;ad_delegation</title>
<path fill="none" stroke="black" d="M266.105,-443.825C257.44,-396.171 243.148,-317.566 234.309,-268.951"/>
<polygon fill="black" stroke="black" points="237.742,-268.267 232.51,-259.055 230.855,-269.52 237.742,-268.267"/>
<text text-anchor="middle" x="267" y="-347.8" font-family="Inconsolata" font-size="14.00">Yes</text>
</g>
<!-- lab_only -->
<g id="node12" class="node"><title>lab_only</title>
<path fill="none" stroke="black" d="M635,-393C635,-393 372,-393 372,-393 366,-393 360,-387 360,-381 360,-381 360,-322 360,-322 360,-316 366,-310 372,-310 372,-310 635,-310 635,-310 641,-310 647,-316 647,-322 647,-322 647,-381 647,-381 647,-387 641,-393 635,-393"/>
<text text-anchor="middle" x="503.5" y="-377.8" font-family="Inconsolata" font-size="14.00">Are you setting up a test lab where it</text>
<text text-anchor="middle" x="503.5" y="-362.8" font-family="Inconsolata" font-size="14.00">does not matter that ALL traffic between</text>
<text text-anchor="middle" x="503.5" y="-347.8" font-family="Inconsolata" font-size="14.00">ansible and the Windows hosts, including</text>
<text text-anchor="middle" x="503.5" y="-332.8" font-family="Inconsolata" font-size="14.00">passwords, will be sent as plain text</text>
<text text-anchor="middle" x="503.5" y="-317.8" font-family="Inconsolata" font-size="14.00">and could easily be intercepted?</text>
</g>
<!-- ad&#45;&gt;lab_only -->
<g id="edge2" class="edge"><title>ad&#45;&gt;lab_only</title>
<path fill="none" stroke="black" d="M344.071,-443.999C369.341,-429.496 397.993,-413.052 423.969,-398.144"/>
<polygon fill="black" stroke="black" points="425.736,-401.166 432.667,-393.152 422.251,-395.094 425.736,-401.166"/>
<text text-anchor="middle" x="517.5" y="-414.8" font-family="Inconsolata" font-size="14.00">No, I will only be using local users</text>
</g>
<!-- ad_delegation&#45;&gt;use_kerb -->
<g id="edge8" class="edge"><title>ad_delegation&#45;&gt;use_kerb</title>
<path fill="none" stroke="black" d="M142.695,-190.956C118.627,-178.086 94.1483,-161.231 76.5,-140 53.9448,-112.866 43.5895,-72.7299 38.9815,-46.2292"/>
<polygon fill="black" stroke="black" points="42.4026,-45.4544 37.3873,-36.1218 35.4881,-46.545 42.4026,-45.4544"/>
<text text-anchor="middle" x="83.5" y="-109.8" font-family="Inconsolata" font-size="14.00">No</text>
</g>
<!-- credssp_ok -->
<g id="node11" class="node"><title>credssp_ok</title>
<path fill="none" stroke="black" d="M341,-131.5C341,-131.5 112,-131.5 112,-131.5 106,-131.5 100,-125.5 100,-119.5 100,-119.5 100,-107.5 100,-107.5 100,-101.5 106,-95.5 112,-95.5 112,-95.5 341,-95.5 341,-95.5 347,-95.5 353,-101.5 353,-107.5 353,-107.5 353,-119.5 353,-119.5 353,-125.5 347,-131.5 341,-131.5"/>
<text text-anchor="middle" x="226.5" y="-109.8" font-family="Inconsolata" font-size="14.00">Is credssp allowed on your network?</text>
</g>
<!-- ad_delegation&#45;&gt;credssp_ok -->
<g id="edge9" class="edge"><title>ad_delegation&#45;&gt;credssp_ok</title>
<path fill="none" stroke="black" d="M226.5,-190.849C226.5,-175.147 226.5,-156.622 226.5,-141.752"/>
<polygon fill="black" stroke="black" points="230,-141.663 226.5,-131.663 223,-141.663 230,-141.663"/>
<text text-anchor="middle" x="237" y="-161.8" font-family="Inconsolata" font-size="14.00">Yes</text>
</g>
<!-- credssp_ok&#45;&gt;use_kerb_delegation -->
<g id="edge10" class="edge"><title>credssp_ok&#45;&gt;use_kerb_delegation</title>
<path fill="none" stroke="black" d="M217.696,-95.3507C210.456,-81.248 200.082,-61.0405 191.825,-44.9567"/>
<polygon fill="black" stroke="black" points="194.929,-43.3383 187.248,-36.0406 188.702,-46.5353 194.929,-43.3383"/>
<text text-anchor="middle" x="211.5" y="-57.8" font-family="Inconsolata" font-size="14.00">No</text>
</g>
<!-- credssp_ok&#45;&gt;use_credssp_delegation -->
<g id="edge11" class="edge"><title>credssp_ok&#45;&gt;use_credssp_delegation</title>
<path fill="none" stroke="black" d="M253.279,-95.3507C276.843,-80.2595 311.324,-58.1776 337.149,-41.6389"/>
<polygon fill="black" stroke="black" points="339.358,-44.3811 345.891,-36.0406 335.582,-38.4863 339.358,-44.3811"/>
<text text-anchor="middle" x="328" y="-57.8" font-family="Inconsolata" font-size="14.00">Yes</text>
</g>
<!-- lab_only&#45;&gt;use_basic -->
<g id="edge4" class="edge"><title>lab_only&#45;&gt;use_basic</title>
<path fill="none" stroke="black" d="M503.5,-309.852C503.5,-241.309 503.5,-104.53 503.5,-46.2825"/>
<polygon fill="black" stroke="black" points="507,-46.0384 503.5,-36.0384 500,-46.0385 507,-46.0384"/>
<text text-anchor="middle" x="514" y="-161.8" font-family="Inconsolata" font-size="14.00">Yes</text>
</g>
<!-- workgroup -->
<g id="node13" class="node"><title>workgroup</title>
<path fill="none" stroke="black" d="M699,-251.5C699,-251.5 544,-251.5 544,-251.5 538,-251.5 532,-245.5 532,-239.5 532,-239.5 532,-210.5 532,-210.5 532,-204.5 538,-198.5 544,-198.5 544,-198.5 699,-198.5 699,-198.5 705,-198.5 711,-204.5 711,-210.5 711,-210.5 711,-239.5 711,-239.5 711,-245.5 705,-251.5 699,-251.5"/>
<text text-anchor="middle" x="621.5" y="-236.3" font-family="Inconsolata" font-size="14.00">Are the windows machines</text>
<text text-anchor="middle" x="621.5" y="-221.3" font-family="Inconsolata" font-size="14.00">all members of the same</text>
<text text-anchor="middle" x="621.5" y="-206.3" font-family="Inconsolata" font-size="14.00">windows workgroup?</text>
</g>
<!-- lab_only&#45;&gt;workgroup -->
<g id="edge5" class="edge"><title>lab_only&#45;&gt;workgroup</title>
<path fill="none" stroke="black" d="M542.138,-309.734C557.733,-293.279 575.493,-274.541 590.252,-258.969"/>
<polygon fill="black" stroke="black" points="592.895,-261.269 597.234,-251.603 587.814,-256.453 592.895,-261.269"/>
<text text-anchor="middle" x="579.5" y="-280.8" font-family="Inconsolata" font-size="14.00">No</text>
</g>
<!-- workgroup&#45;&gt;use_ntlm -->
<g id="edge7" class="edge"><title>workgroup&#45;&gt;use_ntlm</title>
<path fill="none" stroke="black" d="M617.043,-198.33C614.281,-181.731 610.828,-159.637 608.5,-140 604.696,-107.909 601.861,-70.8578 600.2,-46.2973"/>
<polygon fill="black" stroke="black" points="603.689,-46.0194 599.54,-36.2709 596.704,-46.4792 603.689,-46.0194"/>
<text text-anchor="middle" x="619" y="-109.8" font-family="Inconsolata" font-size="14.00">Yes</text>
</g>
<!-- certs_ok -->
<g id="node14" class="node"><title>certs_ok</title>
<path fill="none" stroke="black" d="M899,-140C899,-140 650,-140 650,-140 644,-140 638,-134 638,-128 638,-128 638,-99 638,-99 638,-93 644,-87 650,-87 650,-87 899,-87 899,-87 905,-87 911,-93 911,-99 911,-99 911,-128 911,-128 911,-134 905,-140 899,-140"/>
<text text-anchor="middle" x="774.5" y="-124.8" font-family="Inconsolata" font-size="14.00">Are you happy to acquire/generate</text>
<text text-anchor="middle" x="774.5" y="-109.8" font-family="Inconsolata" font-size="14.00">certificates for each user and machine</text>
<text text-anchor="middle" x="774.5" y="-94.8" font-family="Inconsolata" font-size="14.00">you want to manage via ansible?</text>
</g>
<!-- workgroup&#45;&gt;certs_ok -->
<g id="edge6" class="edge"><title>workgroup&#45;&gt;certs_ok</title>
<path fill="none" stroke="black" d="M657.372,-198.327C679.24,-182.676 707.349,-162.559 730.549,-145.955"/>
<polygon fill="black" stroke="black" points="732.758,-148.678 738.853,-140.012 728.684,-142.986 732.758,-148.678"/>
<text text-anchor="middle" x="718.5" y="-161.8" font-family="Inconsolata" font-size="14.00">No</text>
</g>
<!-- certs_ok&#45;&gt;use_credssp -->
<g id="edge12" class="edge"><title>certs_ok&#45;&gt;use_credssp</title>
<path fill="none" stroke="black" d="M760.837,-86.9507C753.904,-73.985 745.494,-58.259 738.512,-45.2025"/>
<polygon fill="black" stroke="black" points="741.524,-43.4125 733.722,-36.2447 735.351,-46.7135 741.524,-43.4125"/>
<text text-anchor="middle" x="757.5" y="-57.8" font-family="Inconsolata" font-size="14.00">No</text>
</g>
<!-- certs_ok&#45;&gt;use_certificates -->
<g id="edge13" class="edge"><title>certs_ok&#45;&gt;use_certificates</title>
<path fill="none" stroke="black" d="M787.889,-86.9507C794.684,-73.985 802.926,-58.259 809.768,-45.2025"/>
<polygon fill="black" stroke="black" points="812.921,-46.7267 814.463,-36.2447 806.721,-43.4774 812.921,-46.7267"/>
<text text-anchor="middle" x="815" y="-57.8" font-family="Inconsolata" font-size="14.00">Yes</text>
</g>
</g>
</svg>
