<?xml version="1.0" encoding="UTF-8" standalone="no"?>
<!DOCTYPE svg PUBLIC "-//W3C//DTD SVG 1.1//EN"
 "http://www.w3.org/Graphics/SVG/1.1/DTD/svg11.dtd">
<!-- Generated by graphviz version 2.38.0 (20140413.2041)
 -->
<!-- Title: %3 Pages: 1 -->
<svg width="887pt" height="610pt"
 viewBox="0.00 0.00 887.50 610.00" xmlns="http://www.w3.org/2000/svg" xmlns:xlink="http://www.w3.org/1999/xlink">
<g id="graph0" class="graph" transform="scale(1 1) rotate(0) translate(4 606)">
<title>%3</title>
<polygon fill="white" stroke="none" points="-4,4 -4,-606 883.5,-606 883.5,4 -4,4"/>
<!-- use_kerb -->
<g id="node1" class="node"><title>use_kerb</title>
<polygon fill="none" stroke="black" points="54,-36 0,-36 0,-0 54,-0 54,-36"/>
<text text-anchor="middle" x="27" y="-14.3" font-family="Times,serif" font-size="14.00">Kerb</text>
</g>
<!-- use_kerb_delegation -->
<g id="node2" class="node"><title>use_kerb_delegation</title>
<polygon fill="none" stroke="black" points="202,-36 72,-36 72,-0 202,-0 202,-36"/>
<text text-anchor="middle" x="137" y="-14.3" font-family="Times,serif" font-size="14.00">Kerb delegation</text>
</g>
<!-- use_credssp -->
<g id="node3" class="node"><title>use_credssp</title>
<polygon fill="none" stroke="black" points="716.5,-36 643.5,-36 643.5,-0 716.5,-0 716.5,-36"/>
<text text-anchor="middle" x="680" y="-14.3" font-family="Times,serif" font-size="14.00">credssp</text>
</g>
<!-- use_credssp_delegation -->
<g id="node4" class="node"><title>use_credssp_delegation</title>
<polygon fill="none" stroke="black" points="375.5,-36 220.5,-36 220.5,-0 375.5,-0 375.5,-36"/>
<text text-anchor="middle" x="298" y="-14.3" font-family="Times,serif" font-size="14.00">Credssp delegation</text>
</g>
<!-- use_ntlm -->
<g id="node5" class="node"><title>use_ntlm</title>
<polygon fill="none" stroke="black" points="570,-36 516,-36 516,-0 570,-0 570,-36"/>
<text text-anchor="middle" x="543" y="-14.3" font-family="Times,serif" font-size="14.00">Ntlm</text>
</g>
<!-- use_insecure -->
<g id="node6" class="node"><title>use_insecure</title>
<polygon fill="none" stroke="black" points="474,-36 394,-36 394,-0 474,-0 474,-36"/>
<text text-anchor="middle" x="434" y="-14.3" font-family="Times,serif" font-size="14.00">Insecure</text>
</g>
<!-- use_certificates -->
<g id="node7" class="node"><title>use_certificates</title>
<polygon fill="none" stroke="black" points="835.5,-36 734.5,-36 734.5,-0 835.5,-0 835.5,-36"/>
<text text-anchor="middle" x="785" y="-14.3" font-family="Times,serif" font-size="14.00">Certificates</text>
</g>
<!-- start -->
<g id="node8" class="node"><title>start</title>
<path fill="none" stroke="black" d="M369.5,-602C369.5,-602 82.5,-602 82.5,-602 76.5,-602 70.5,-596 70.5,-590 70.5,-590 70.5,-561 70.5,-561 70.5,-555 76.5,-549 82.5,-549 82.5,-549 369.5,-549 369.5,-549 375.5,-549 381.5,-555 381.5,-561 381.5,-561 381.5,-590 381.5,-590 381.5,-596 375.5,-602 369.5,-602"/>
<text text-anchor="middle" x="226" y="-586.8" font-family="Times,serif" font-size="14.00">Answer these questions to work out the </text>
<text text-anchor="middle" x="226" y="-571.8" font-family="Times,serif" font-size="14.00">best settings for connecting to Windows </text>
<text text-anchor="middle" x="226" y="-556.8" font-family="Times,serif" font-size="14.00">hosts in your environment</text>
</g>
<!-- ad -->
<g id="node9" class="node"><title>ad</title>
<path fill="none" stroke="black" d="M312.5,-512C312.5,-512 139.5,-512 139.5,-512 133.5,-512 127.5,-506 127.5,-500 127.5,-500 127.5,-441 127.5,-441 127.5,-435 133.5,-429 139.5,-429 139.5,-429 312.5,-429 312.5,-429 318.5,-429 324.5,-435 324.5,-441 324.5,-441 324.5,-500 324.5,-500 324.5,-506 318.5,-512 312.5,-512"/>
<text text-anchor="middle" x="226" y="-496.8" font-family="Times,serif" font-size="14.00">Do you have an existing</text>
<text text-anchor="middle" x="226" y="-481.8" font-family="Times,serif" font-size="14.00">Active Directory domain </text>
<text text-anchor="middle" x="226" y="-466.8" font-family="Times,serif" font-size="14.00">that your windows hosts</text>
<text text-anchor="middle" x="226" y="-451.8" font-family="Times,serif" font-size="14.00">and users</text>
<text text-anchor="middle" x="226" y="-436.8" font-family="Times,serif" font-size="14.00">will be members of?</text>
</g>
<!-- start&#45;&gt;ad -->
<g id="edge1" class="edge"><title>start&#45;&gt;ad</title>
<path fill="none" stroke="black" d="M226,-548.774C226,-540.722 226,-531.537 226,-522.378"/>
<polygon fill="black" stroke="black" points="229.5,-522.11 226,-512.11 222.5,-522.11 229.5,-522.11"/>
</g>
<!-- ad_delegation -->
<g id="node10" class="node"><title>ad_delegation</title>
<path fill="none" stroke="black" d="M333.5,-259C333.5,-259 82.5,-259 82.5,-259 76.5,-259 70.5,-253 70.5,-247 70.5,-247 70.5,-203 70.5,-203 70.5,-197 76.5,-191 82.5,-191 82.5,-191 333.5,-191 333.5,-191 339.5,-191 345.5,-197 345.5,-203 345.5,-203 345.5,-247 345.5,-247 345.5,-253 339.5,-259 333.5,-259"/>
<text text-anchor="middle" x="208" y="-243.8" font-family="Times,serif" font-size="14.00">Do you need to delegate credentials</text>
<text text-anchor="middle" x="208" y="-228.8" font-family="Times,serif" font-size="14.00">(this enables ansible&#45;managed </text>
<text text-anchor="middle" x="208" y="-213.8" font-family="Times,serif" font-size="14.00">windows hosts to access remote </text>
<text text-anchor="middle" x="208" y="-198.8" font-family="Times,serif" font-size="14.00">SMB/CIFS file shares &amp; printers)?</text>
</g>
<!-- ad&#45;&gt;ad_delegation -->
<g id="edge3" class="edge"><title>ad&#45;&gt;ad_delegation</title>
<path fill="none" stroke="black" d="M222.987,-428.744C219.719,-384.531 214.523,-314.239 211.188,-269.122"/>
<polygon fill="black" stroke="black" points="214.672,-268.776 210.444,-259.061 207.691,-269.292 214.672,-268.776"/>
<text text-anchor="middle" x="232.5" y="-340.3" font-family="Times,serif" font-size="14.00">Yes</text>
</g>
<!-- lab_only -->
<g id="node12" class="node"><title>lab_only</title>
<path fill="none" stroke="black" d="M601.5,-378C601.5,-378 266.5,-378 266.5,-378 260.5,-378 254.5,-372 254.5,-366 254.5,-366 254.5,-322 254.5,-322 254.5,-316 260.5,-310 266.5,-310 266.5,-310 601.5,-310 601.5,-310 607.5,-310 613.5,-316 613.5,-322 613.5,-322 613.5,-366 613.5,-366 613.5,-372 607.5,-378 601.5,-378"/>
<text text-anchor="middle" x="434" y="-362.8" font-family="Times,serif" font-size="14.00">Are you setting up an insecure test lab where it</text>
<text text-anchor="middle" x="434" y="-347.8" font-family="Times,serif" font-size="14.00">does not matter that ALL traffic between</text>
<text text-anchor="middle" x="434" y="-332.8" font-family="Times,serif" font-size="14.00">ansible and the Windows hosts, including</text>
<text text-anchor="middle" x="434" y="-317.8" font-family="Times,serif" font-size="14.00">passwords, will be sent as plain text?</text>
</g>
<!-- ad&#45;&gt;lab_only -->
<g id="edge2" class="edge"><title>ad&#45;&gt;lab_only</title>
<path fill="none" stroke="black" d="M293.819,-428.906C318.315,-414.244 345.87,-397.751 370.025,-383.292"/>
<polygon fill="black" stroke="black" points="371.976,-386.204 378.759,-378.065 368.381,-380.198 371.976,-386.204"/>
<text text-anchor="middle" x="360" y="-399.8" font-family="Times,serif" font-size="14.00">No</text>
</g>
<!-- ad_delegation&#45;&gt;use_kerb -->
<g id="edge8" class="edge"><title>ad_delegation&#45;&gt;use_kerb</title>
<path fill="none" stroke="black" d="M98.6801,-190.941C74.7509,-178.675 52.0906,-162.137 37,-140 18.2171,-112.446 18.8301,-72.7378 22.0397,-46.4203"/>
<polygon fill="black" stroke="black" points="25.5258,-46.7654 23.4702,-36.3718 18.5956,-45.7787 25.5258,-46.7654"/>
<text text-anchor="middle" x="48" y="-109.8" font-family="Times,serif" font-size="14.00">No</text>
</g>
<!-- credssp_ok -->
<g id="node11" class="node"><title>credssp_ok</title>
<path fill="none" stroke="black" d="M336,-131.5C336,-131.5 80,-131.5 80,-131.5 74,-131.5 68,-125.5 68,-119.5 68,-119.5 68,-107.5 68,-107.5 68,-101.5 74,-95.5 80,-95.5 80,-95.5 336,-95.5 336,-95.5 342,-95.5 348,-101.5 348,-107.5 348,-107.5 348,-119.5 348,-119.5 348,-125.5 342,-131.5 336,-131.5"/>
<text text-anchor="middle" x="208" y="-109.8" font-family="Times,serif" font-size="14.00">Is credssp allowed on your network?</text>
</g>
<!-- ad_delegation&#45;&gt;credssp_ok -->
<g id="edge9" class="edge"><title>ad_delegation&#45;&gt;credssp_ok</title>
<path fill="none" stroke="black" d="M208,-190.849C208,-175.147 208,-156.622 208,-141.752"/>
<polygon fill="black" stroke="black" points="211.5,-141.663 208,-131.663 204.5,-141.663 211.5,-141.663"/>
<text text-anchor="middle" x="220.5" y="-161.8" font-family="Times,serif" font-size="14.00">Yes</text>
</g>
<!-- credssp_ok&#45;&gt;use_kerb_delegation -->
<g id="edge10" class="edge"><title>credssp_ok&#45;&gt;use_kerb_delegation</title>
<path fill="none" stroke="black" d="M194.978,-95.3507C184.068,-80.9844 168.349,-60.2829 156.029,-44.0592"/>
<polygon fill="black" stroke="black" points="158.775,-41.8881 149.94,-36.0406 153.2,-46.1214 158.775,-41.8881"/>
<text text-anchor="middle" x="186" y="-57.8" font-family="Times,serif" font-size="14.00">No</text>
</g>
<!-- credssp_ok&#45;&gt;use_credssp_delegation -->
<g id="edge11" class="edge"><title>credssp_ok&#45;&gt;use_credssp_delegation</title>
<path fill="none" stroke="black" d="M224.507,-95.3507C238.463,-80.8526 258.629,-59.9025 274.308,-43.6138"/>
<polygon fill="black" stroke="black" points="277.184,-45.6725 281.597,-36.0406 272.141,-40.818 277.184,-45.6725"/>
<text text-anchor="middle" x="276.5" y="-57.8" font-family="Times,serif" font-size="14.00">Yes</text>
</g>
<!-- lab_only&#45;&gt;use_insecure -->
<g id="edge4" class="edge"><title>lab_only&#45;&gt;use_insecure</title>
<path fill="none" stroke="black" d="M434,-309.849C434,-245.624 434,-105.363 434,-46.1935"/>
<polygon fill="black" stroke="black" points="437.5,-46.1254 434,-36.1255 430.5,-46.1255 437.5,-46.1254"/>
<text text-anchor="middle" x="446.5" y="-161.8" font-family="Times,serif" font-size="14.00">Yes</text>
</g>
<!-- workgroup -->
<g id="node13" class="node"><title>workgroup</title>
<path fill="none" stroke="black" d="M659.5,-251.5C659.5,-251.5 474.5,-251.5 474.5,-251.5 468.5,-251.5 462.5,-245.5 462.5,-239.5 462.5,-239.5 462.5,-210.5 462.5,-210.5 462.5,-204.5 468.5,-198.5 474.5,-198.5 474.5,-198.5 659.5,-198.5 659.5,-198.5 665.5,-198.5 671.5,-204.5 671.5,-210.5 671.5,-210.5 671.5,-239.5 671.5,-239.5 671.5,-245.5 665.5,-251.5 659.5,-251.5"/>
<text text-anchor="middle" x="567" y="-236.3" font-family="Times,serif" font-size="14.00">Are the windows machines</text>
<text text-anchor="middle" x="567" y="-221.3" font-family="Times,serif" font-size="14.00">all members of the same</text>
<text text-anchor="middle" x="567" y="-206.3" font-family="Times,serif" font-size="14.00">windows workgroup?</text>
</g>
<!-- lab_only&#45;&gt;workgroup -->
<g id="edge5" class="edge"><title>lab_only&#45;&gt;workgroup</title>
<path fill="none" stroke="black" d="M471.757,-309.785C490.035,-293.706 511.9,-274.471 530.068,-258.489"/>
<polygon fill="black" stroke="black" points="532.41,-261.09 537.607,-251.857 527.787,-255.834 532.41,-261.09"/>
<text text-anchor="middle" x="519" y="-280.8" font-family="Times,serif" font-size="14.00">No</text>
</g>
<!-- workgroup&#45;&gt;use_ntlm -->
<g id="edge7" class="edge"><title>workgroup&#45;&gt;use_ntlm</title>
<path fill="none" stroke="black" d="M562.159,-198.346C559.168,-181.753 555.446,-159.66 553,-140 549.009,-107.931 546.212,-70.8759 544.61,-46.3082"/>
<polygon fill="black" stroke="black" points="548.1,-46.0383 543.977,-36.2785 541.114,-46.4791 548.1,-46.0383"/>
<text text-anchor="middle" x="565.5" y="-109.8" font-family="Times,serif" font-size="14.00">Yes</text>
</g>
<!-- certs_ok -->
<g id="node14" class="node"><title>certs_ok</title>
<path fill="none" stroke="black" d="M867.5,-140C867.5,-140 598.5,-140 598.5,-140 592.5,-140 586.5,-134 586.5,-128 586.5,-128 586.5,-99 586.5,-99 586.5,-93 592.5,-87 598.5,-87 598.5,-87 867.5,-87 867.5,-87 873.5,-87 879.5,-93 879.5,-99 879.5,-99 879.5,-128 879.5,-128 879.5,-134 873.5,-140 867.5,-140"/>
<text text-anchor="middle" x="733" y="-124.8" font-family="Times,serif" font-size="14.00">Are you happy to acquire/generate</text>
<text text-anchor="middle" x="733" y="-109.8" font-family="Times,serif" font-size="14.00">certificates for each user and machine</text>
<text text-anchor="middle" x="733" y="-94.8" font-family="Times,serif" font-size="14.00">you want to manage via ansible?</text>
</g>
<!-- workgroup&#45;&gt;certs_ok -->
<g id="edge6" class="edge"><title>workgroup&#45;&gt;certs_ok</title>
<path fill="none" stroke="black" d="M605.92,-198.327C629.854,-182.539 660.679,-162.206 685.975,-145.519"/>
<polygon fill="black" stroke="black" points="687.904,-148.44 694.324,-140.012 684.049,-142.597 687.904,-148.44"/>
<text text-anchor="middle" x="675" y="-161.8" font-family="Times,serif" font-size="14.00">No</text>
</g>
<!-- certs_ok&#45;&gt;use_credssp -->
<g id="edge12" class="edge"><title>certs_ok&#45;&gt;use_credssp</title>
<path fill="none" stroke="black" d="M718.518,-86.9507C711.168,-73.985 702.254,-58.259 694.853,-45.2025"/>
<polygon fill="black" stroke="black" points="697.751,-43.2183 689.775,-36.2447 691.662,-46.6702 697.751,-43.2183"/>
<text text-anchor="middle" x="719" y="-57.8" font-family="Times,serif" font-size="14.00">No</text>
</g>
<!-- certs_ok&#45;&gt;use_certificates -->
<g id="edge13" class="edge"><title>certs_ok&#45;&gt;use_certificates</title>
<path fill="none" stroke="black" d="M747.209,-86.9507C754.42,-73.985 763.166,-58.259 770.428,-45.2025"/>
<polygon fill="black" stroke="black" points="773.608,-46.6852 775.409,-36.2447 767.49,-43.2829 773.608,-46.6852"/>
<text text-anchor="middle" x="777.5" y="-57.8" font-family="Times,serif" font-size="14.00">Yes</text>
</g>
</g>
</svg>
