<?xml version="1.0" encoding="UTF-8" standalone="no"?>
<!DOCTYPE svg PUBLIC "-//W3C//DTD SVG 1.1//EN"
 "http://www.w3.org/Graphics/SVG/1.1/DTD/svg11.dtd">
<!-- Generated by graphviz version 2.36.0 (20140111.2315)
 -->
<!-- Title: %3 Pages: 1 -->
<svg width="918pt" height="634pt"
 viewBox="0.00 0.00 918.00 634.00" xmlns="http://www.w3.org/2000/svg" xmlns:xlink="http://www.w3.org/1999/xlink">
<g id="graph0" class="graph" transform="scale(1 1) rotate(0) translate(4 630)">
<title>%3</title>
<polygon fill="white" stroke="none" points="-4,4 -4,-630 914,-630 914,4 -4,4"/>
<!-- use_kerb -->
<g id="node1" class="node"><title>use_kerb</title>
<g id="a_node1"><a xlink:href="../win_kerberos.html" xlink:title="Kerberos">
<polygon fill="none" stroke="black" points="70.25,-36 -0.25,-36 -0.25,-0 70.25,-0 70.25,-36"/>
<text text-anchor="middle" x="35" y="-14.3" font-family="Inconsolata" font-size="14.00">Kerberos</text>
</a>
</g>
</g>
<!-- use_kerb_delegation -->
<g id="node2" class="node"><title>use_kerb_delegation</title>
<polygon fill="none" stroke="black" points="267.25,-36 88.75,-36 88.75,-0 267.25,-0 267.25,-36"/>
<text text-anchor="middle" x="178" y="-14.3" font-family="Inconsolata" font-size="14.00">Kerberos with delegation</text>
</g>
<!-- use_credssp -->
<g id="node3" class="node"><title>use_credssp</title>
<polygon fill="none" stroke="black" points="756,-36 692,-36 692,-0 756,-0 756,-36"/>
<text text-anchor="middle" x="724" y="-14.3" font-family="Inconsolata" font-size="14.00">Credssp</text>
</g>
<!-- use_credssp_delegation -->
<g id="node4" class="node"><title>use_credssp_delegation</title>
<polygon fill="none" stroke="black" points="458,-36 286,-36 286,-0 458,-0 458,-36"/>
<text text-anchor="middle" x="372" y="-14.3" font-family="Inconsolata" font-size="14.00">Credssp with delegation</text>
</g>
<!-- use_ntlm -->
<g id="node5" class="node"><title>use_ntlm</title>
<polygon fill="none" stroke="black" points="625,-36 571,-36 571,-0 625,-0 625,-36"/>
<text text-anchor="middle" x="598" y="-14.3" font-family="Inconsolata" font-size="14.00">Ntlm</text>
</g>
<!-- use_basic -->
<g id="node6" class="node"><title>use_basic</title>
<polygon fill="none" stroke="black" points="530,-36 476,-36 476,-0 530,-0 530,-36"/>
<text text-anchor="middle" x="503" y="-14.3" font-family="Inconsolata" font-size="14.00">Basic</text>
</g>
<!-- use_certificates -->
<g id="node7" class="node"><title>use_certificates</title>
<polygon fill="none" stroke="black" points="871.5,-36 774.5,-36 774.5,-0 871.5,-0 871.5,-36"/>
<text text-anchor="middle" x="823" y="-14.3" font-family="Inconsolata" font-size="14.00">Certificates</text>
</g>
<!-- start -->
<g id="node8" class="node"><title>start</title>
<path fill="none" stroke="black" d="M404.25,-625.5C404.25,-625.5 141.75,-625.5 141.75,-625.5 135.75,-625.5 129.75,-619.5 129.75,-613.5 129.75,-613.5 129.75,-584.5 129.75,-584.5 129.75,-578.5 135.75,-572.5 141.75,-572.5 141.75,-572.5 404.25,-572.5 404.25,-572.5 410.25,-572.5 416.25,-578.5 416.25,-584.5 416.25,-584.5 416.25,-613.5 416.25,-613.5 416.25,-619.5 410.25,-625.5 404.25,-625.5"/>
<text text-anchor="middle" x="273" y="-610.3" font-family="Inconsolata" font-size="14.00">Answer these questions to work out the </text>
<text text-anchor="middle" x="273" y="-595.3" font-family="Inconsolata" font-size="14.00">best settings for connecting to Windows </text>
<text text-anchor="middle" x="273" y="-580.3" font-family="Inconsolata" font-size="14.00">hosts in your environment</text>
</g>
<!-- ad -->
<g id="node9" class="node"><title>ad</title>
<path fill="none" stroke="black" d="M350.25,-533.5C350.25,-533.5 195.75,-533.5 195.75,-533.5 189.75,-533.5 183.75,-527.5 183.75,-521.5 183.75,-521.5 183.75,-462.5 183.75,-462.5 183.75,-456.5 189.75,-450.5 195.75,-450.5 195.75,-450.5 350.25,-450.5 350.25,-450.5 356.25,-450.5 362.25,-456.5 362.25,-462.5 362.25,-462.5 362.25,-521.5 362.25,-521.5 362.25,-527.5 356.25,-533.5 350.25,-533.5"/>
<text text-anchor="middle" x="273" y="-518.3" font-family="Inconsolata" font-size="14.00">Do you have an existing</text>
<text text-anchor="middle" x="273" y="-503.3" font-family="Inconsolata" font-size="14.00">Active Directory domain </text>
<text text-anchor="middle" x="273" y="-488.3" font-family="Inconsolata" font-size="14.00">that your windows hosts</text>
<text text-anchor="middle" x="273" y="-473.3" font-family="Inconsolata" font-size="14.00">and users</text>
<text text-anchor="middle" x="273" y="-458.3" font-family="Inconsolata" font-size="14.00">will be members of?</text>
</g>
<!-- start&#45;&gt;ad -->
<g id="edge1" class="edge"><title>start&#45;&gt;ad</title>
<path fill="none" stroke="black" d="M273,-572.314C273,-563.662 273,-553.683 273,-543.785"/>
<polygon fill="black" stroke="black" points="276.5,-543.558 273,-533.558 269.5,-543.558 276.5,-543.558"/>
</g>
<!-- ad_delegation -->
<g id="node10" class="node"><title>ad_delegation</title>
<path fill="none" stroke="black" d="M340.25,-262C340.25,-262 111.75,-262 111.75,-262 105.75,-262 99.75,-256 99.75,-250 99.75,-250 99.75,-206 99.75,-206 99.75,-200 105.75,-194 111.75,-194 111.75,-194 340.25,-194 340.25,-194 346.25,-194 352.25,-200 352.25,-206 352.25,-206 352.25,-250 352.25,-250 352.25,-256 346.25,-262 340.25,-262"/>
<text text-anchor="middle" x="226" y="-246.8" font-family="Inconsolata" font-size="14.00">Do you need to delegate credentials</text>
<text text-anchor="middle" x="226" y="-231.8" font-family="Inconsolata" font-size="14.00">(this enables ansible&#45;managed </text>
<text text-anchor="middle" x="226" y="-216.8" font-family="Inconsolata" font-size="14.00">windows hosts to access remote </text>
<text text-anchor="middle" x="226" y="-201.8" font-family="Inconsolata" font-size="14.00">SMB/CIFS file shares &amp; printers)?</text>
</g>
<!-- ad&#45;&gt;ad_delegation -->
<g id="edge3" class="edge"><title>ad&#45;&gt;ad_delegation</title>
<path fill="none" stroke="black" d="M265.708,-450.35C257.042,-402.042 242.643,-321.776 233.772,-272.324"/>
<polygon fill="black" stroke="black" points="237.178,-271.486 231.967,-262.261 230.288,-272.722 237.178,-271.486"/>
<text text-anchor="middle" x="266.5" y="-352.3" font-family="Inconsolata" font-size="14.00">Yes</text>
</g>
<!-- lab_only -->
<g id="node12" class="node"><title>lab_only</title>
<path fill="none" stroke="black" d="M634.25,-397.5C634.25,-397.5 371.75,-397.5 371.75,-397.5 365.75,-397.5 359.75,-391.5 359.75,-385.5 359.75,-385.5 359.75,-326.5 359.75,-326.5 359.75,-320.5 365.75,-314.5 371.75,-314.5 371.75,-314.5 634.25,-314.5 634.25,-314.5 640.25,-314.5 646.25,-320.5 646.25,-326.5 646.25,-326.5 646.25,-385.5 646.25,-385.5 646.25,-391.5 640.25,-397.5 634.25,-397.5"/>
<text text-anchor="middle" x="503" y="-382.3" font-family="Inconsolata" font-size="14.00">Are you setting up a test lab where it</text>
<text text-anchor="middle" x="503" y="-367.3" font-family="Inconsolata" font-size="14.00">does not matter that ALL traffic between</text>
<text text-anchor="middle" x="503" y="-352.3" font-family="Inconsolata" font-size="14.00">ansible and the Windows hosts, including</text>
<text text-anchor="middle" x="503" y="-337.3" font-family="Inconsolata" font-size="14.00">passwords, will be sent as plain text</text>
<text text-anchor="middle" x="503" y="-322.3" font-family="Inconsolata" font-size="14.00">and could easily be intercepted?</text>
</g>
<!-- ad&#45;&gt;lab_only -->
<g id="edge2" class="edge"><title>ad&#45;&gt;lab_only</title>
<path fill="none" stroke="black" d="M342.632,-450.432C368.409,-435.414 397.808,-418.286 424.333,-402.832"/>
<polygon fill="black" stroke="black" points="426.33,-405.72 433.208,-397.661 422.806,-399.671 426.33,-405.72"/>
<text text-anchor="middle" x="517" y="-420.3" font-family="Inconsolata" font-size="14.00">No, I will only be using local users</text>
</g>
<!-- ad_delegation&#45;&gt;use_kerb -->
<g id="edge8" class="edge"><title>ad_delegation&#45;&gt;use_kerb</title>
<path fill="none" stroke="black" d="M142.907,-193.857C118.584,-180.775 93.7821,-163.611 76,-142 53.1471,-114.226 42.8492,-73.2035 38.3367,-46.2918"/>
<polygon fill="black" stroke="black" points="41.7938,-45.7447 36.8297,-36.3848 34.8734,-46.7974 41.7938,-45.7447"/>
<text text-anchor="middle" x="83" y="-111.3" font-family="Inconsolata" font-size="14.00">No</text>
</g>
<!-- credssp_ok -->
<g id="node11" class="node"><title>credssp_ok</title>
<path fill="none" stroke="black" d="M340.25,-133C340.25,-133 111.75,-133 111.75,-133 105.75,-133 99.75,-127 99.75,-121 99.75,-121 99.75,-109 99.75,-109 99.75,-103 105.75,-97 111.75,-97 111.75,-97 340.25,-97 340.25,-97 346.25,-97 352.25,-103 352.25,-109 352.25,-109 352.25,-121 352.25,-121 352.25,-127 346.25,-133 340.25,-133"/>
<text text-anchor="middle" x="226" y="-111.3" font-family="Inconsolata" font-size="14.00">Is credssp allowed on your network?</text>
</g>
<!-- ad_delegation&#45;&gt;credssp_ok -->
<g id="edge9" class="edge"><title>ad_delegation&#45;&gt;credssp_ok</title>
<path fill="none" stroke="black" d="M226,-193.997C226,-177.953 226,-158.889 226,-143.625"/>
<polygon fill="black" stroke="black" points="229.5,-143.279 226,-133.279 222.5,-143.279 229.5,-143.279"/>
<text text-anchor="middle" x="236.5" y="-164.3" font-family="Inconsolata" font-size="14.00">Yes</text>
</g>
<!-- credssp_ok&#45;&gt;use_kerb_delegation -->
<g id="edge10" class="edge"><title>credssp_ok&#45;&gt;use_kerb_delegation</title>
<path fill="none" stroke="black" d="M217.196,-96.5755C209.956,-82.2467 199.582,-61.7149 191.325,-45.3731"/>
<polygon fill="black" stroke="black" points="194.382,-43.661 186.748,-36.314 188.134,-46.8178 194.382,-43.661"/>
<text text-anchor="middle" x="211" y="-58.3" font-family="Inconsolata" font-size="14.00">No</text>
</g>
<!-- credssp_ok&#45;&gt;use_credssp_delegation -->
<g id="edge11" class="edge"><title>credssp_ok&#45;&gt;use_credssp_delegation</title>
<path fill="none" stroke="black" d="M252.439,-96.7962C276.212,-81.3277 311.291,-58.5022 337.31,-41.5721"/>
<polygon fill="black" stroke="black" points="339.284,-44.4634 345.757,-36.0758 335.466,-38.5961 339.284,-44.4634"/>
<text text-anchor="middle" x="327.5" y="-58.3" font-family="Inconsolata" font-size="14.00">Yes</text>
</g>
<!-- lab_only&#45;&gt;use_basic -->
<g id="edge4" class="edge"><title>lab_only&#45;&gt;use_basic</title>
<path fill="none" stroke="black" d="M503,-314.471C503,-245.129 503,-105.505 503,-46.4132"/>
<polygon fill="black" stroke="black" points="506.5,-46.3518 503,-36.3518 499.5,-46.3518 506.5,-46.3518"/>
<text text-anchor="middle" x="513.5" y="-164.3" font-family="Inconsolata" font-size="14.00">Yes</text>
</g>
<!-- workgroup -->
<g id="node13" class="node"><title>workgroup</title>
<path fill="none" stroke="black" d="M698.25,-254.5C698.25,-254.5 543.75,-254.5 543.75,-254.5 537.75,-254.5 531.75,-248.5 531.75,-242.5 531.75,-242.5 531.75,-213.5 531.75,-213.5 531.75,-207.5 537.75,-201.5 543.75,-201.5 543.75,-201.5 698.25,-201.5 698.25,-201.5 704.25,-201.5 710.25,-207.5 710.25,-213.5 710.25,-213.5 710.25,-242.5 710.25,-242.5 710.25,-248.5 704.25,-254.5 698.25,-254.5"/>
<text text-anchor="middle" x="621" y="-239.3" font-family="Inconsolata" font-size="14.00">Are the windows machines</text>
<text text-anchor="middle" x="621" y="-224.3" font-family="Inconsolata" font-size="14.00">all members of the same</text>
<text text-anchor="middle" x="621" y="-209.3" font-family="Inconsolata" font-size="14.00">windows workgroup?</text>
</g>
<!-- lab_only&#45;&gt;workgroup -->
<g id="edge5" class="edge"><title>lab_only&#45;&gt;workgroup</title>
<path fill="none" stroke="black" d="M540.985,-314.439C556.734,-297.623 574.78,-278.353 589.744,-262.375"/>
<polygon fill="black" stroke="black" points="592.537,-264.513 596.818,-254.821 587.428,-259.728 592.537,-264.513"/>
<text text-anchor="middle" x="579" y="-284.3" font-family="Inconsolata" font-size="14.00">No</text>
</g>
<!-- workgroup&#45;&gt;use_ntlm -->
<g id="edge7" class="edge"><title>workgroup&#45;&gt;use_ntlm</title>
<path fill="none" stroke="black" d="M616.602,-201.399C613.829,-184.56 610.341,-162.017 608,-142 604.162,-109.19 601.32,-71.2848 599.666,-46.323"/>
<polygon fill="black" stroke="black" points="603.146,-45.9043 599.01,-36.1501 596.161,-46.3545 603.146,-45.9043"/>
<text text-anchor="middle" x="618.5" y="-111.3" font-family="Inconsolata" font-size="14.00">Yes</text>
</g>
<!-- certs_ok -->
<g id="node14" class="node"><title>certs_ok</title>
<path fill="none" stroke="black" d="M898.25,-141.5C898.25,-141.5 649.75,-141.5 649.75,-141.5 643.75,-141.5 637.75,-135.5 637.75,-129.5 637.75,-129.5 637.75,-100.5 637.75,-100.5 637.75,-94.5 643.75,-88.5 649.75,-88.5 649.75,-88.5 898.25,-88.5 898.25,-88.5 904.25,-88.5 910.25,-94.5 910.25,-100.5 910.25,-100.5 910.25,-129.5 910.25,-129.5 910.25,-135.5 904.25,-141.5 898.25,-141.5"/>
<text text-anchor="middle" x="774" y="-126.3" font-family="Inconsolata" font-size="14.00">Are you happy to acquire/generate</text>
<text text-anchor="middle" x="774" y="-111.3" font-family="Inconsolata" font-size="14.00">certificates for each user and machine</text>
<text text-anchor="middle" x="774" y="-96.3" font-family="Inconsolata" font-size="14.00">you want to manage via ansible?</text>
</g>
<!-- workgroup&#45;&gt;certs_ok -->
<g id="edge6" class="edge"><title>workgroup&#45;&gt;certs_ok</title>
<path fill="none" stroke="black" d="M656.486,-201.255C678.5,-185.284 706.947,-164.646 730.339,-147.676"/>
<polygon fill="black" stroke="black" points="732.668,-150.31 738.707,-141.605 728.557,-144.644 732.668,-150.31"/>
<text text-anchor="middle" x="718" y="-164.3" font-family="Inconsolata" font-size="14.00">No</text>
</g>
<!-- certs_ok&#45;&gt;use_credssp -->
<g id="edge12" class="edge"><title>certs_ok&#45;&gt;use_credssp</title>
<path fill="none" stroke="black" d="M760.337,-88.0408C753.357,-74.7787 744.881,-58.6743 737.872,-45.3561"/>
<polygon fill="black" stroke="black" points="740.824,-43.4504 733.069,-36.2313 734.629,-46.7106 740.824,-43.4504"/>
<text text-anchor="middle" x="757" y="-58.3" font-family="Inconsolata" font-size="14.00">No</text>
</g>
<!-- certs_ok&#45;&gt;use_certificates -->
<g id="edge13" class="edge"><title>certs_ok&#45;&gt;use_certificates</title>
<path fill="none" stroke="black" d="M787.389,-88.0408C794.23,-74.7787 802.536,-58.6743 809.406,-45.3561"/>
<polygon fill="black" stroke="black" points="812.639,-46.7232 814.112,-36.2313 806.418,-43.5143 812.639,-46.7232"/>
<text text-anchor="middle" x="814.5" y="-58.3" font-family="Inconsolata" font-size="14.00">Yes</text>
</g>
</g>
</svg>
