<?xml version="1.0" encoding="UTF-8" standalone="no"?>
<!-- Created with Inkscape (http://www.inkscape.org/) -->

<svg
   width="849.49353"
   height="1023.4333"
   viewBox="0 0 224.76183 270.78332"
   version="1.1"
   id="svg348"
   inkscape:version="1.2 (dc2aedaf03, 2022-05-15)"
   sodipodi:docname="ansible_basic.svg"
   xml:space="preserve"
   xmlns:inkscape="http://www.inkscape.org/namespaces/inkscape"
   xmlns:sodipodi="http://sodipodi.sourceforge.net/DTD/sodipodi-0.dtd"
   xmlns="http://www.w3.org/2000/svg"
   xmlns:svg="http://www.w3.org/2000/svg"><sodipodi:namedview
     id="namedview350"
     pagecolor="#ffffff"
     bordercolor="#111111"
     borderopacity="1"
     inkscape:showpageshadow="0"
     inkscape:pageopacity="0"
     inkscape:pagecheckerboard="1"
     inkscape:deskcolor="#d1d1d1"
     inkscape:document-units="px"
     showgrid="false"
     inkscape:zoom="0.5946522"
     inkscape:cx="298.49381"
     inkscape:cy="538.12968"
     inkscape:window-width="1920"
     inkscape:window-height="979"
     inkscape:window-x="0"
     inkscape:window-y="32"
     inkscape:window-maximized="1"
     inkscape:current-layer="g10676" /><defs
     id="defs345"><marker
       style="overflow:visible"
       id="marker10543"
       refX="0"
       refY="0"
       orient="auto-start-reverse"
       inkscape:stockid="RoundedArrow"
       markerWidth="6.1347523"
       markerHeight="5.9304948"
       viewBox="0 0 6.1347524 5.9304951"
       inkscape:isstock="true"
       inkscape:collect="always"
       preserveAspectRatio="xMidYMid"><path
         transform="scale(0.7)"
         d="m -0.21114562,-4.1055728 6.42229122,3.21114561 a 1,1 90 0 1 0,1.78885438 L -0.21114562,4.1055728 A 1.236068,1.236068 31.717474 0 1 -2,3 v -6 a 1.236068,1.236068 148.28253 0 1 1.78885438,-1.1055728 z"
         style="fill-rule:evenodd;stroke:none"
         id="path10541" /></marker><marker
       style="overflow:visible"
       id="RoundedArrow"
       refX="0"
       refY="0"
       orient="auto-start-reverse"
       inkscape:stockid="RoundedArrow"
       markerWidth="6.1347523"
       markerHeight="5.9304953"
       viewBox="0 0 6.1347524 5.9304951"
       inkscape:isstock="true"
       inkscape:collect="always"
       preserveAspectRatio="xMidYMid"><path
         transform="scale(0.7)"
         d="m -0.21114562,-4.1055728 6.42229122,3.21114561 a 1,1 90 0 1 0,1.78885438 L -0.21114562,4.1055728 A 1.236068,1.236068 31.717474 0 1 -2,3 v -6 a 1.236068,1.236068 148.28253 0 1 1.78885438,-1.1055728 z"
         style="fill-rule:evenodd;stroke:none"
         id="path1367" /></marker></defs><g
     inkscape:label="control node"
     inkscape:groupmode="layer"
     id="layer1"
     transform="translate(-143.23061,-11.064939)"><path
       id="rect404"
       style="opacity:1;fill:#e6e6e6;stroke-width:0.331667;stroke-linejoin:bevel;stroke-opacity:0"
       d="M 143.23061,11.064939 H 367.9924 V 107.25983 H 143.23061 Z" /><g
       aria-label="Control node"
       id="text2650"
       style="font-size:7.7611px;line-height:1.25;-inkscape-font-specification:sans-serif;letter-spacing:0px;word-spacing:0px;stroke-width:0.264583"><path
         d="m 152.74789,19.329369 v 0.807185 q -0.38654,-0.360012 -0.82614,-0.538123 -0.4358,-0.178111 -0.92845,-0.178111 -0.97014,0 -1.48552,0.594967 -0.51539,0.591177 -0.51539,1.712899 0,1.117932 0.51539,1.712899 0.51538,0.591177 1.48552,0.591177 0.49265,0 0.92845,-0.178111 0.4396,-0.178111 0.82614,-0.538123 v 0.799605 q -0.4017,0.272852 -0.85266,0.409277 -0.44718,0.136426 -0.9474,0.136426 -1.28468,0 -2.02365,-0.784447 -0.73897,-0.788237 -0.73897,-2.148703 0,-1.364256 0.73897,-2.148703 0.73897,-0.788237 2.02365,-0.788237 0.5078,0 0.95498,0.136426 0.45096,0.132636 0.84508,0.401697 z"
         id="path10832" /><path
         d="m 155.54461,20.795944 q -0.56086,0 -0.88677,0.439594 -0.3259,0.435804 -0.3259,1.197513 0,0.76171 0.32212,1.201303 0.3259,0.435804 0.89055,0.435804 0.55707,0 0.88298,-0.439593 0.3259,-0.439594 0.3259,-1.197514 0,-0.75413 -0.3259,-1.193724 -0.32591,-0.443383 -0.88298,-0.443383 z m 0,-0.591177 q 0.90951,0 1.42868,0.591177 0.51918,0.591178 0.51918,1.637107 0,1.04214 -0.51918,1.637107 -0.51917,0.591178 -1.42868,0.591178 -0.91329,0 -1.43247,-0.591178 -0.51538,-0.594967 -0.51538,-1.637107 0,-1.045929 0.51538,-1.637107 0.51918,-0.591177 1.43247,-0.591177 z"
         id="path10834" /><path
         d="m 162.17641,21.989668 v 2.561769 h -0.69729 v -2.539031 q 0,-0.602547 -0.23495,-0.901925 -0.23496,-0.299378 -0.70487,-0.299378 -0.56465,0 -0.89055,0.360012 -0.32591,0.360012 -0.32591,0.981506 v 2.398816 h -0.70107 v -4.244351 h 0.70107 v 0.65939 q 0.25012,-0.382749 0.58739,-0.572229 0.34106,-0.18948 0.78445,-0.18948 0.73139,0 1.10656,0.454752 0.37517,0.450962 0.37517,1.330149 z"
         id="path10836" /><path
         d="m 164.2569,19.101993 v 1.205093 h 1.43626 v 0.541913 h -1.43626 v 2.304076 q 0,0.519175 0.14022,0.66697 0.144,0.147794 0.5798,0.147794 h 0.71624 v 0.583598 h -0.71624 q -0.80718,0 -1.11414,-0.299378 -0.30696,-0.303168 -0.30696,-1.098984 v -2.304076 h -0.51159 v -0.541913 h 0.51159 v -1.205093 z"
         id="path10838" /><path
         d="m 169.06969,20.958897 q -0.11748,-0.06821 -0.25769,-0.09853 -0.13643,-0.03411 -0.30317,-0.03411 -0.59118,0 -0.9095,0.386539 -0.31454,0.38275 -0.31454,1.102774 v 2.235863 h -0.70108 v -4.244351 h 0.70108 v 0.65939 q 0.2198,-0.386539 0.57223,-0.572229 0.35243,-0.18948 0.85645,-0.18948 0.072,0 0.15916,0.01137 0.0872,0.0076 0.19327,0.02653 z"
         id="path10840" /><path
         d="m 171.27524,20.795944 q -0.56086,0 -0.88677,0.439594 -0.3259,0.435804 -0.3259,1.197513 0,0.76171 0.32211,1.201303 0.32591,0.435804 0.89056,0.435804 0.55707,0 0.88298,-0.439593 0.3259,-0.439594 0.3259,-1.197514 0,-0.75413 -0.3259,-1.193724 -0.32591,-0.443383 -0.88298,-0.443383 z m 0,-0.591177 q 0.9095,0 1.42868,0.591177 0.51917,0.591178 0.51917,1.637107 0,1.04214 -0.51917,1.637107 -0.51918,0.591178 -1.42868,0.591178 -0.91329,0 -1.43247,-0.591178 -0.51538,-0.594967 -0.51538,-1.637107 0,-1.045929 0.51538,-1.637107 0.51918,-0.591177 1.43247,-0.591177 z"
         id="path10842" /><path
         d="m 174.37892,18.654821 h 0.69729 v 5.896616 h -0.69729 z"
         id="path10844" /><path
         d="m 182.53035,21.989668 v 2.561769 h -0.69729 v -2.539031 q 0,-0.602547 -0.23495,-0.901925 -0.23496,-0.299378 -0.70487,-0.299378 -0.56465,0 -0.89055,0.360012 -0.32591,0.360012 -0.32591,0.981506 v 2.398816 h -0.70107 v -4.244351 h 0.70107 v 0.65939 q 0.25011,-0.382749 0.58739,-0.572229 0.34106,-0.18948 0.78445,-0.18948 0.73139,0 1.10656,0.454752 0.37517,0.450962 0.37517,1.330149 z"
         id="path10846" /><path
         d="m 185.56582,20.795944 q -0.56086,0 -0.88677,0.439594 -0.3259,0.435804 -0.3259,1.197513 0,0.76171 0.32211,1.201303 0.32591,0.435804 0.89056,0.435804 0.55707,0 0.88297,-0.439593 0.32591,-0.439594 0.32591,-1.197514 0,-0.75413 -0.32591,-1.193724 -0.3259,-0.443383 -0.88297,-0.443383 z m 0,-0.591177 q 0.9095,0 1.42868,0.591177 0.51917,0.591178 0.51917,1.637107 0,1.04214 -0.51917,1.637107 -0.51918,0.591178 -1.42868,0.591178 -0.9133,0 -1.43247,-0.591178 -0.51539,-0.594967 -0.51539,-1.637107 0,-1.045929 0.51539,-1.637107 0.51917,-0.591177 1.43247,-0.591177 z"
         id="path10848" /><path
         d="m 191.46243,20.951318 v -2.296497 h 0.69729 v 5.896616 h -0.69729 v -0.636652 q -0.21979,0.37896 -0.55707,0.56465 -0.33348,0.181901 -0.80339,0.181901 -0.76929,0 -1.25436,-0.613915 -0.48128,-0.613915 -0.48128,-1.61437 0,-1.000454 0.48128,-1.614369 0.48507,-0.613915 1.25436,-0.613915 0.46991,0 0.80339,0.18569 0.33728,0.181901 0.55707,0.560861 z m -2.37607,1.481733 q 0,0.769289 0.31453,1.208882 0.31833,0.435804 0.87161,0.435804 0.55328,0 0.87161,-0.435804 0.31832,-0.439593 0.31832,-1.208882 0,-0.769288 -0.31832,-1.205092 -0.31833,-0.439594 -0.87161,-0.439594 -0.55328,0 -0.87161,0.439594 -0.31453,0.435804 -0.31453,1.205092 z"
         id="path10850" /><path
         d="m 197.22641,22.25494 v 0.341064 h -3.206 q 0.0455,0.720024 0.43202,1.098984 0.39033,0.37517 1.08382,0.37517 0.4017,0 0.77687,-0.09853 0.37896,-0.09853 0.75034,-0.295589 v 0.65939 q -0.37517,0.159163 -0.76929,0.242535 -0.39411,0.08337 -0.7996,0.08337 -1.01561,0 -1.61058,-0.591178 -0.59118,-0.591177 -0.59118,-1.599211 0,-1.04214 0.56086,-1.652265 0.56465,-0.613915 1.51963,-0.613915 0.85645,0 1.35289,0.553281 0.50022,0.549492 0.50022,1.496892 z m -0.69728,-0.204638 q -0.008,-0.57223 -0.32212,-0.913294 -0.31074,-0.341064 -0.82613,-0.341064 -0.5836,0 -0.93603,0.329695 -0.34864,0.329696 -0.4017,0.928452 z"
         id="path10852" /></g><path
       id="rect2702"
       style="opacity:1;fill:#ffffff;stroke:#0063e1;stroke-width:0.185208;stroke-linejoin:bevel"
       d="m 154.74631,41.449078 h 87.2262 v 47.307228 h -87.2262 z" /><g
       id="g6733"
       style="fill:#666666"
       transform="matrix(1.636514,0,0,1.7495284,259.6675,33.984901)"><path
         d="M 28,4.38 H 8 A 0.61,0.61 0 0 0 7.38,5 V 31 A 0.61,0.61 0 0 0 8,31.62 H 28 A 0.61,0.61 0 0 0 28.62,31 V 5 A 0.61,0.61 0 0 0 28,4.38 Z m -0.62,26 H 8.62 V 5.62 h 18.76 z"
         id="path6719"
         style="fill:#666666" /><path
         d="m 12,13.62 h 6 a 0.62,0.62 0 0 0 0,-1.24 h -6 a 0.62,0.62 0 0 0 0,1.24 z"
         id="path6725"
         style="fill:#666666" /><path
         d="m 12,16.62 h 12 a 0.62,0.62 0 1 0 0,-1.24 H 12 a 0.62,0.62 0 0 0 0,1.24 z"
         id="path6727"
         style="fill:#666666" /><path
         d="m 12,19.62 h 12 a 0.62,0.62 0 0 0 0,-1.24 H 12 a 0.62,0.62 0 0 0 0,1.24 z"
         id="path6729"
         style="fill:#666666" /><path
         d="m 12,22.62 h 12 a 0.62,0.62 0 0 0 0,-1.24 H 12 a 0.62,0.62 0 1 0 0,1.24 z"
         id="path6731"
         style="fill:#666666" /></g><g
       aria-label="Ansible"
       id="text9111"
       style="font-size:7.7611px;line-height:1.25;-inkscape-font-specification:sans-serif;letter-spacing:0px;word-spacing:0px;stroke-width:0.264583"
       transform="translate(-11.641666)"><path
         d="m 185.30447,62.418646 -1.03835,2.815672 h 2.08049 z m -0.43202,-0.75413 h 0.86782 l 2.15628,5.657872 h -0.79581 l -0.51539,-1.451417 h -2.5504 l -0.51538,1.451417 h -0.80719 z"
         id="path10816" /><path
         d="m 192.22049,64.760618 v 2.56177 h -0.69729 v -2.539032 q 0,-0.602546 -0.23495,-0.901925 -0.23496,-0.299378 -0.70487,-0.299378 -0.56465,0 -0.89056,0.360012 -0.3259,0.360012 -0.3259,0.981506 v 2.398817 h -0.70108 v -4.244352 h 0.70108 v 0.659391 q 0.25011,-0.38275 0.58739,-0.57223 0.34106,-0.18948 0.78444,-0.18948 0.7314,0 1.10657,0.454752 0.37517,0.450962 0.37517,1.330149 z"
         id="path10818" /><path
         d="m 196.31704,63.203093 v 0.65939 q -0.29558,-0.151584 -0.61391,-0.227376 -0.31833,-0.07579 -0.65939,-0.07579 -0.51918,0 -0.78066,0.159164 -0.25769,0.159163 -0.25769,0.477489 0,0.242534 0.18569,0.38275 0.18569,0.136425 0.74655,0.261482 l 0.23874,0.05305 q 0.74277,0.159164 1.05351,0.450963 0.31454,0.288009 0.31454,0.807184 0,0.591178 -0.46991,0.936032 -0.46612,0.344853 -1.28467,0.344853 -0.34107,0 -0.71245,-0.06821 -0.36759,-0.06442 -0.77687,-0.197059 V 66.44699 q 0.38654,0.200849 0.76171,0.303168 0.37517,0.09853 0.74276,0.09853 0.49265,0 0.75792,-0.166743 0.26528,-0.170532 0.26528,-0.477489 0,-0.28422 -0.19327,-0.435804 -0.18948,-0.151584 -0.83751,-0.291799 l -0.24253,-0.05684 q -0.64802,-0.136426 -0.93603,-0.416856 -0.28801,-0.28422 -0.28801,-0.776868 0,-0.598757 0.42443,-0.924662 0.42444,-0.325906 1.2051,-0.325906 0.38654,0 0.7276,0.05684 0.34106,0.05684 0.62907,0.170532 z"
         id="path10820" /><path
         d="m 197.65477,63.078036 h 0.69729 v 4.244352 h -0.69729 z m 0,-1.652265 h 0.69729 v 0.882977 h -0.69729 z"
         id="path10822" /><path
         d="m 202.85789,65.204002 q 0,-0.769289 -0.31832,-1.205093 -0.31454,-0.439594 -0.86782,-0.439594 -0.55328,0 -0.87161,0.439594 -0.31454,0.435804 -0.31454,1.205093 0,0.769288 0.31454,1.208882 0.31833,0.435804 0.87161,0.435804 0.55328,0 0.86782,-0.435804 0.31832,-0.439594 0.31832,-1.208882 z m -2.37229,-1.481734 q 0.2198,-0.37896 0.55329,-0.560861 0.33727,-0.18569 0.80339,-0.18569 0.77308,0 1.25436,0.613915 0.48507,0.613915 0.48507,1.61437 0,1.000454 -0.48507,1.614369 -0.48128,0.613915 -1.25436,0.613915 -0.46612,0 -0.80339,-0.181901 -0.33349,-0.18569 -0.55329,-0.56465 v 0.636653 h -0.70107 v -5.896617 h 0.70107 z"
         id="path10824" /><path
         d="m 204.73753,61.425771 h 0.69729 v 5.896617 h -0.69729 z"
         id="path10826" /><path
         d="m 210.52425,65.02589 v 0.341064 h -3.206 q 0.0455,0.720024 0.43202,1.098984 0.39033,0.375171 1.08382,0.375171 0.4017,0 0.77687,-0.09853 0.37896,-0.09853 0.75034,-0.295589 v 0.659391 q -0.37517,0.159163 -0.76929,0.242534 -0.39412,0.08337 -0.7996,0.08337 -1.01562,0 -1.61058,-0.591177 -0.59118,-0.591178 -0.59118,-1.599211 0,-1.04214 0.56086,-1.652266 0.56465,-0.613915 1.51963,-0.613915 0.85645,0 1.35289,0.553282 0.50022,0.549492 0.50022,1.496892 z m -0.69728,-0.204638 q -0.008,-0.57223 -0.32212,-0.913293 -0.31075,-0.341064 -0.82613,-0.341064 -0.5836,0 -0.93603,0.329695 -0.34865,0.329695 -0.4017,0.928452 z"
         id="path10828" /></g><g
       aria-label="Inventory"
       id="text9115"
       style="font-size:7.7611px;line-height:1.25;-inkscape-font-specification:sans-serif;letter-spacing:0px;word-spacing:0px;stroke-width:0.264583"><path
         d="m 310.82775,61.326327 h 0.7655 V 66.9842 h -0.7655 z"
         id="path10797" /><path
         d="m 316.61447,64.42243 v 2.56177 h -0.69729 v -2.539032 q 0,-0.602546 -0.23495,-0.901925 -0.23496,-0.299378 -0.70487,-0.299378 -0.56465,0 -0.89055,0.360012 -0.32591,0.360012 -0.32591,0.981506 V 66.9842 h -0.70108 v -4.244352 h 0.70108 v 0.65939 q 0.25011,-0.382749 0.58739,-0.572229 0.34106,-0.18948 0.78444,-0.18948 0.7314,0 1.10657,0.454752 0.37517,0.450962 0.37517,1.330149 z"
         id="path10799" /><path
         d="m 317.50502,62.739848 h 0.73898 l 1.32636,3.562224 1.32636,-3.562224 h 0.73897 l -1.59163,4.244352 h -0.9474 z"
         id="path10801" /><path
         d="m 326.22868,64.687702 v 0.341064 h -3.206 q 0.0455,0.720024 0.43201,1.098984 0.39033,0.37517 1.08383,0.37517 0.4017,0 0.77687,-0.09853 0.37896,-0.09853 0.75034,-0.295589 v 0.65939 q -0.37517,0.159164 -0.76929,0.242535 -0.39412,0.08337 -0.79961,0.08337 -1.01561,0 -1.61057,-0.591178 -0.59118,-0.591177 -0.59118,-1.599211 0,-1.042139 0.56086,-1.652265 0.56465,-0.613915 1.51963,-0.613915 0.85645,0 1.35288,0.553281 0.50023,0.549492 0.50023,1.496892 z m -0.69728,-0.204638 q -0.008,-0.57223 -0.32212,-0.913294 -0.31075,-0.341064 -0.82613,-0.341064 -0.5836,0 -0.93603,0.329696 -0.34865,0.329695 -0.4017,0.928451 z"
         id="path10803" /><path
         d="m 330.90126,64.42243 v 2.56177 h -0.69729 v -2.539032 q 0,-0.602546 -0.23495,-0.901925 -0.23496,-0.299378 -0.70487,-0.299378 -0.56465,0 -0.89055,0.360012 -0.32591,0.360012 -0.32591,0.981506 V 66.9842 h -0.70108 v -4.244352 h 0.70108 v 0.65939 q 0.25011,-0.382749 0.58739,-0.572229 0.34106,-0.18948 0.78444,-0.18948 0.7314,0 1.10657,0.454752 0.37517,0.450962 0.37517,1.330149 z"
         id="path10805" /><path
         d="m 332.98175,61.534755 v 1.205093 h 1.43626 v 0.541913 h -1.43626 v 2.304076 q 0,0.519175 0.14021,0.66697 0.14401,0.147794 0.57981,0.147794 h 0.71624 V 66.9842 h -0.71624 q -0.80718,0 -1.11414,-0.299379 -0.30696,-0.303168 -0.30696,-1.098984 v -2.304076 h -0.51159 v -0.541913 h 0.51159 v -1.205093 z"
         id="path10807" /><path
         d="m 336.97978,63.228706 q -0.56087,0 -0.88677,0.439594 -0.32591,0.435804 -0.32591,1.197513 0,0.76171 0.32212,1.201303 0.32591,0.435804 0.89056,0.435804 0.55707,0 0.88297,-0.439593 0.32591,-0.439594 0.32591,-1.197514 0,-0.75413 -0.32591,-1.193723 -0.3259,-0.443384 -0.88297,-0.443384 z m 0,-0.591177 q 0.9095,0 1.42867,0.591177 0.51918,0.591178 0.51918,1.637107 0,1.04214 -0.51918,1.637107 -0.51917,0.591178 -1.42867,0.591178 -0.9133,0 -1.43247,-0.591178 -0.51539,-0.594967 -0.51539,-1.637107 0,-1.045929 0.51539,-1.637107 0.51917,-0.591177 1.43247,-0.591177 z"
         id="path10809" /><path
         d="m 342.54291,63.391659 q -0.11748,-0.06821 -0.2577,-0.09853 -0.13642,-0.03411 -0.30316,-0.03411 -0.59118,0 -0.90951,0.386539 -0.31453,0.38275 -0.31453,1.102774 V 66.9842 h -0.70108 v -4.244352 h 0.70108 v 0.65939 q 0.21979,-0.386539 0.57223,-0.572229 0.35243,-0.18948 0.85644,-0.18948 0.072,0 0.15917,0.01137 0.0872,0.0076 0.19327,0.02653 z"
         id="path10811" /><path
         d="m 345.04025,67.378318 q -0.29558,0.75792 -0.57602,0.989085 -0.28043,0.231166 -0.75034,0.231166 h -0.55707 v -0.583598 h 0.40928 q 0.28801,0 0.44717,-0.136426 0.15917,-0.136426 0.35244,-0.644232 l 0.12505,-0.318326 -1.71669,-4.176139 h 0.73898 l 1.32636,3.319689 1.32635,-3.319689 h 0.73898 z"
         id="path10813" /></g><g
       id="g452"
       transform="matrix(0.61225773,0,0,0.52463712,206.64886,55.548447)"
       style="fill:#4d4d4d"><path
         d="m 23.82,19.52 h -2.25 a 8.43,8.43 0 0 0 -0.44,-1.08 l 1.6,-1.6 A 0.62,0.62 0 0 0 22.8,16.05 10.65,10.65 0 0 0 20,13.26 0.62,0.62 0 0 0 19.2,13.33 l -1.59,1.59 a 8.27,8.27 0 0 0 -1.1,-0.47 v -2.26 a 0.61,0.61 0 0 0 -0.5,-0.61 10.22,10.22 0 0 0 -3.94,0 0.63,0.63 0 0 0 -0.51,0.62 v 2.24 A 8.89,8.89 0 0 0 10.41,14.9 L 8.81,13.3 A 0.62,0.62 0 0 0 8.02,13.23 10.65,10.65 0 0 0 5.26,16 0.62,0.62 0 0 0 5.33,16.8 l 1.59,1.59 A 7.91,7.91 0 0 0 6.43,19.55 H 4.18 a 0.64,0.64 0 0 0 -0.62,0.51 10.87,10.87 0 0 0 0,3.94 0.64,0.64 0 0 0 0.62,0.51 h 2.25 a 7.91,7.91 0 0 0 0.49,1.16 l -1.59,1.56 a 0.62,0.62 0 0 0 -0.07,0.8 10.36,10.36 0 0 0 2.79,2.77 0.62,0.62 0 0 0 0.79,-0.07 l 1.6,-1.6 a 8.89,8.89 0 0 0 1.15,0.46 v 2.24 a 0.63,0.63 0 0 0 0.51,0.62 10.64,10.64 0 0 0 1.9,0.17 10.15,10.15 0 0 0 2,-0.2 0.61,0.61 0 0 0 0.5,-0.61 v -2.26 a 8.27,8.27 0 0 0 1.1,-0.47 l 1.59,1.59 a 0.62,0.62 0 0 0 0.8,0.07 A 10.65,10.65 0 0 0 22.8,28 0.62,0.62 0 0 0 22.73,27.21 l -1.6,-1.6 a 8.43,8.43 0 0 0 0.44,-1.08 h 2.25 a 0.64,0.64 0 0 0 0.62,-0.51 10.87,10.87 0 0 0 0,-3.94 0.64,0.64 0 0 0 -0.62,-0.56 z m -0.53,3.71 H 21.1 a 0.62,0.62 0 0 0 -0.6,0.47 7.1,7.1 0 0 1 -0.69,1.66 0.62,0.62 0 0 0 0.1,0.75 l 1.56,1.56 a 9.82,9.82 0 0 1 -1.73,1.74 l -1.55,-1.55 a 0.62,0.62 0 0 0 -0.76,-0.09 6.73,6.73 0 0 1 -1.68,0.71 0.62,0.62 0 0 0 -0.46,0.6 v 2.2 a 8.73,8.73 0 0 1 -2.45,0 v -2.16 a 0.63,0.63 0 0 0 -0.47,-0.61 6.68,6.68 0 0 1 -1.73,-0.7 0.62,0.62 0 0 0 -0.75,0.1 L 8.33,29.47 A 9.82,9.82 0 0 1 6.59,27.74 L 8.14,26.19 A 0.62,0.62 0 0 0 8.23,25.43 6.68,6.68 0 0 1 7.5,23.69 0.62,0.62 0 0 0 6.9,23.23 H 4.71 a 8.45,8.45 0 0 1 0,-2.46 H 6.9 A 0.62,0.62 0 0 0 7.5,20.31 6.68,6.68 0 0 1 8.23,18.57 0.62,0.62 0 0 0 8.14,17.81 L 6.59,16.26 a 9.82,9.82 0 0 1 1.74,-1.73 l 1.56,1.56 a 0.62,0.62 0 0 0 0.75,0.1 6.68,6.68 0 0 1 1.73,-0.7 0.63,0.63 0 0 0 0.47,-0.61 V 12.7 a 8.73,8.73 0 0 1 2.45,0 v 2.2 a 0.62,0.62 0 0 0 0.46,0.6 6.73,6.73 0 0 1 1.68,0.71 0.62,0.62 0 0 0 0.76,-0.09 l 1.55,-1.55 a 9.82,9.82 0 0 1 1.73,1.74 l -1.56,1.56 a 0.62,0.62 0 0 0 -0.1,0.75 7.1,7.1 0 0 1 0.69,1.66 0.62,0.62 0 0 0 0.6,0.47 h 2.19 a 8.45,8.45 0 0 1 0,2.46 z"
         id="path444"
         style="fill:#4d4d4d" /><path
         d="M 14,18.52 A 3.48,3.48 0 1 0 17.48,22 3.48,3.48 0 0 0 14,18.52 Z m 0,5.71 A 2.23,2.23 0 1 1 16.23,22 2.23,2.23 0 0 1 14,24.23 Z"
         id="path446"
         style="fill:#4d4d4d" /><path
         d="M 32.47,10.4 A 0.62,0.62 0 0 0 31.86,9.89 H 30.14 A 6.22,6.22 0 0 0 29.85,9.18 L 31.07,8 A 0.63,0.63 0 0 0 31.15,7.21 8.83,8.83 0 0 0 28.9,4.9 0.63,0.63 0 0 0 28.1,4.97 L 26.89,6.18 A 6.66,6.66 0 0 0 26.16,5.87 V 4.15 a 0.61,0.61 0 0 0 -0.51,-0.61 8.34,8.34 0 0 0 -3.19,0 0.61,0.61 0 0 0 -0.51,0.61 V 5.84 A 5.16,5.16 0 0 0 21.18,6.15 L 20,4.93 A 0.63,0.63 0 0 0 19.21,4.85 8.83,8.83 0 0 0 16.9,7.1 0.63,0.63 0 0 0 16.97,7.9 l 1.21,1.21 a 7.83,7.83 0 0 0 -0.47,1.25 0.63,0.63 0 0 0 0.45,0.76 0.62,0.62 0 0 0 0.76,-0.44 A 5.44,5.44 0 0 1 19.49,9.32 0.62,0.62 0 0 0 19.4,8.56 L 18.24,7.4 a 7.35,7.35 0 0 1 1.22,-1.21 l 1.16,1.17 a 0.63,0.63 0 0 0 0.76,0.1 4.92,4.92 0 0 1 1.34,-0.55 0.63,0.63 0 0 0 0.48,-0.6 V 4.67 a 7,7 0 0 1 1.71,0 v 1.66 a 0.63,0.63 0 0 0 0.46,0.61 5.2,5.2 0 0 1 1.31,0.55 0.62,0.62 0 0 0 0.76,-0.09 L 28.6,6.24 a 7.35,7.35 0 0 1 1.21,1.22 l -1.17,1.16 a 0.63,0.63 0 0 0 -0.1,0.76 5,5 0 0 1 0.54,1.3 0.62,0.62 0 0 0 0.6,0.46 h 1.64 a 6.19,6.19 0 0 1 0,1.72 h -1.64 a 0.62,0.62 0 0 0 -0.6,0.46 5,5 0 0 1 -0.54,1.3 0.63,0.63 0 0 0 0.1,0.76 l 1.17,1.16 A 7.35,7.35 0 0 1 28.6,17.76 L 27.44,16.6 a 0.62,0.62 0 0 0 -0.76,-0.09 5.2,5.2 0 0 1 -1.31,0.55 0.63,0.63 0 0 0 0.33,1.21 6.33,6.33 0 0 0 1.19,-0.45 L 28.1,19 a 0.62,0.62 0 0 0 0.44,0.18 0.69,0.69 0 0 0 0.36,-0.11 8.83,8.83 0 0 0 2.25,-2.27 0.63,0.63 0 0 0 -0.08,-0.79 l -1.22,-1.22 a 6.22,6.22 0 0 0 0.29,-0.71 h 1.72 a 0.62,0.62 0 0 0 0.61,-0.51 8.61,8.61 0 0 0 0,-3.2 z"
         id="path448"
         style="fill:#4d4d4d" /><path
         d="M 24,13.66 A 0.63,0.63 0 0 0 24,14.91 2.91,2.91 0 1 0 21.09,12 0.63,0.63 0 0 0 22.34,12 1.66,1.66 0 1 1 24,13.66 Z"
         id="path450"
         style="fill:#4d4d4d" /></g></g><g
     inkscape:label="managed node 1"
     inkscape:groupmode="layer"
     id="layer1-2"
     transform="translate(-154.12628,34.333078)" /><g
     inkscape:label="managed node 2"
     inkscape:groupmode="layer"
     id="g10044"
     transform="translate(-154.12628,34.333078)" /><g
     inkscape:label="managed node 3"
     inkscape:groupmode="layer"
     id="g10073"
     transform="translate(-154.12628,34.333078)" /><g
     inkscape:groupmode="layer"
     id="layer3"
     inkscape:label="arrows"
     transform="translate(-143.23061,-11.064939)"><g
       id="g10676"
       transform="translate(-12.170833)"><g
         id="g1528"><g
           id="g10026"
           transform="translate(47.312685,6.23967)"><g
             aria-label="Managed node 1"
             id="text2650-6"
             style="font-size:7.7611px;line-height:1.25;-inkscape-font-specification:sans-serif;text-align:center;letter-spacing:0px;word-spacing:0px;text-anchor:middle;stroke-width:0.264583"><path
               d="m 170.84965,134.92073 h 1.14067 l 1.44384,3.85023 1.45142,-3.85023 h 1.14066 v 5.65787 h -0.74655 v -4.96817 l -1.45899,3.88055 h -0.76929 l -1.459,-3.88055 v 4.96817 h -0.74276 z"
               id="path10856" /><path
               d="m 179.44446,138.44505 q -0.84508,0 -1.17098,0.19327 -0.32591,0.19327 -0.32591,0.65939 0,0.37138 0.24254,0.59118 0.24632,0.21601 0.66697,0.21601 0.5798,0 0.92845,-0.40928 0.35243,-0.41307 0.35243,-1.09519 v -0.15538 z m 1.39079,-0.28801 v 2.42156 h -0.69729 v -0.64423 q -0.23874,0.38654 -0.59497,0.57223 -0.35622,0.1819 -0.87161,0.1819 -0.65181,0 -1.03835,-0.36381 -0.38274,-0.36759 -0.38274,-0.9815 0,-0.71624 0.47748,-1.08004 0.48128,-0.3638 1.43247,-0.3638 h 0.97772 v -0.0682 q 0,-0.48128 -0.31833,-0.74276 -0.31453,-0.26528 -0.88676,-0.26528 -0.3638,0 -0.70866,0.0872 -0.34485,0.0872 -0.66318,0.26148 v -0.64423 q 0.38275,-0.1478 0.74276,-0.2198 0.36002,-0.0758 0.70108,-0.0758 0.92087,0 1.37562,0.47749 0.45476,0.47749 0.45476,1.44762 z"
               id="path10858" /><path
               d="m 185.79962,138.01683 v 2.56177 h -0.69728 v -2.53903 q 0,-0.60255 -0.23496,-0.90193 -0.23496,-0.29938 -0.70487,-0.29938 -0.56465,0 -0.89055,0.36002 -0.32591,0.36001 -0.32591,0.9815 v 2.39882 h -0.70107 v -4.24435 h 0.70107 v 0.65939 q 0.25012,-0.38275 0.58739,-0.57223 0.34106,-0.18948 0.78445,-0.18948 0.73139,0 1.10656,0.45475 0.37517,0.45096 0.37517,1.33015 z"
               id="path10860" /><path
               d="m 189.11931,138.44505 q -0.84508,0 -1.17098,0.19327 -0.32591,0.19327 -0.32591,0.65939 0,0.37138 0.24253,0.59118 0.24633,0.21601 0.66697,0.21601 0.57981,0 0.92846,-0.40928 0.35243,-0.41307 0.35243,-1.09519 v -0.15538 z m 1.39078,-0.28801 v 2.42156 h -0.69728 v -0.64423 q -0.23875,0.38654 -0.59497,0.57223 -0.35622,0.1819 -0.87161,0.1819 -0.65181,0 -1.03835,-0.36381 -0.38275,-0.36759 -0.38275,-0.9815 0,-0.71624 0.47749,-1.08004 0.48128,-0.3638 1.43247,-0.3638 h 0.97772 v -0.0682 q 0,-0.48128 -0.31833,-0.74276 -0.31453,-0.26528 -0.88676,-0.26528 -0.36381,0 -0.70866,0.0872 -0.34485,0.0872 -0.66318,0.26148 v -0.64423 q 0.38275,-0.1478 0.74276,-0.2198 0.36001,-0.0758 0.70108,-0.0758 0.92087,0 1.37562,0.47749 0.45475,0.47749 0.45475,1.44762 z"
               id="path10862" /><path
               d="m 194.73929,138.40716 q 0,-0.75792 -0.31454,-1.17478 -0.31075,-0.41685 -0.8754,-0.41685 -0.56086,0 -0.87539,0.41685 -0.31075,0.41686 -0.31075,1.17478 0,0.75413 0.31075,1.17098 0.31453,0.41686 0.87539,0.41686 0.56465,0 0.8754,-0.41686 0.31454,-0.41685 0.31454,-1.17098 z m 0.69728,1.64468 q 0,1.08383 -0.48128,1.61058 -0.48127,0.53055 -1.47415,0.53055 -0.36759,0 -0.6935,-0.0568 -0.3259,-0.0531 -0.63286,-0.16674 v -0.67834 q 0.30696,0.16675 0.60634,0.24633 0.29938,0.0796 0.61012,0.0796 0.68592,0 1.02698,-0.36001 0.34107,-0.35623 0.34107,-1.08004 v -0.34485 q -0.21601,0.37517 -0.55328,0.56086 -0.33728,0.18569 -0.80719,0.18569 -0.78066,0 -1.25815,-0.59497 -0.47749,-0.59497 -0.47749,-1.57647 0,-0.9853 0.47749,-1.58027 0.47749,-0.59496 1.25815,-0.59496 0.46991,0 0.80719,0.18569 0.33727,0.18569 0.55328,0.56086 v -0.64423 h 0.69728 z"
               id="path10864" /><path
               d="m 200.50327,138.2821 v 0.34106 h -3.206 q 0.0455,0.72003 0.43201,1.09899 0.39033,0.37517 1.08383,0.37517 0.40169,0 0.77686,-0.0985 0.37896,-0.0985 0.75035,-0.29559 v 0.65939 q -0.37517,0.15916 -0.76929,0.24254 -0.39412,0.0834 -0.79961,0.0834 -1.01561,0 -1.61058,-0.59118 -0.59118,-0.59118 -0.59118,-1.59921 0,-1.04214 0.56086,-1.65227 0.56466,-0.61391 1.51963,-0.61391 0.85645,0 1.35289,0.55328 0.50023,0.54949 0.50023,1.49689 z m -0.69729,-0.20464 q -0.008,-0.57223 -0.32211,-0.91329 -0.31075,-0.34107 -0.82614,-0.34107 -0.58359,0 -0.93603,0.3297 -0.34864,0.3297 -0.4017,0.92845 z"
               id="path10866" /><path
               d="m 204.44066,136.97848 v -2.2965 h 0.69729 v 5.89662 h -0.69729 v -0.63665 q -0.2198,0.37896 -0.55707,0.56465 -0.33348,0.1819 -0.80339,0.1819 -0.76929,0 -1.25436,-0.61392 -0.48128,-0.61391 -0.48128,-1.61437 0,-1.00045 0.48128,-1.61437 0.48507,-0.61391 1.25436,-0.61391 0.46991,0 0.80339,0.18569 0.33727,0.1819 0.55707,0.56086 z m -2.37608,1.48173 q 0,0.76929 0.31454,1.20888 0.31833,0.43581 0.87161,0.43581 0.55328,0 0.87161,-0.43581 0.31832,-0.43959 0.31832,-1.20888 0,-0.76929 -0.31832,-1.20509 -0.31833,-0.43959 -0.87161,-0.43959 -0.55328,0 -0.87161,0.43959 -0.31454,0.4358 -0.31454,1.20509 z"
               id="path10868" /><path
               d="m 178.83813,147.7182 v 2.56177 h -0.69729 v -2.53903 q 0,-0.60255 -0.23495,-0.90192 -0.23496,-0.29938 -0.70487,-0.29938 -0.56465,0 -0.89056,0.36001 -0.3259,0.36001 -0.3259,0.98151 v 2.39881 h -0.70108 v -4.24435 h 0.70108 v 0.65939 q 0.25011,-0.38275 0.58739,-0.57223 0.34106,-0.18948 0.78444,-0.18948 0.7314,0 1.10657,0.45475 0.37517,0.45097 0.37517,1.33015 z"
               id="path10870" /><path
               d="m 181.8736,146.52448 q -0.56086,0 -0.88677,0.43959 -0.32591,0.43581 -0.32591,1.19752 0,0.76171 0.32212,1.2013 0.32591,0.4358 0.89056,0.4358 0.55707,0 0.88297,-0.43959 0.32591,-0.43959 0.32591,-1.19751 0,-0.75413 -0.32591,-1.19373 -0.3259,-0.44338 -0.88297,-0.44338 z m 0,-0.59118 q 0.9095,0 1.42868,0.59118 0.51917,0.59118 0.51917,1.63711 0,1.04214 -0.51917,1.6371 -0.51918,0.59118 -1.42868,0.59118 -0.9133,0 -1.43247,-0.59118 -0.51539,-0.59496 -0.51539,-1.6371 0,-1.04593 0.51539,-1.63711 0.51917,-0.59118 1.43247,-0.59118 z"
               id="path10872" /><path
               d="m 187.77021,146.67985 v -2.29649 h 0.69729 v 5.89661 h -0.69729 v -0.63665 q -0.21979,0.37896 -0.55707,0.56465 -0.33348,0.1819 -0.80339,0.1819 -0.76929,0 -1.25436,-0.61391 -0.48128,-0.61392 -0.48128,-1.61437 0,-1.00046 0.48128,-1.61437 0.48507,-0.61392 1.25436,-0.61392 0.46991,0 0.80339,0.18569 0.33728,0.1819 0.55707,0.56086 z m -2.37608,1.48174 q 0,0.76929 0.31454,1.20888 0.31833,0.4358 0.87161,0.4358 0.55328,0 0.87161,-0.4358 0.31832,-0.43959 0.31832,-1.20888 0,-0.76929 -0.31832,-1.2051 -0.31833,-0.43959 -0.87161,-0.43959 -0.55328,0 -0.87161,0.43959 -0.31454,0.43581 -0.31454,1.2051 z"
               id="path10874" /><path
               d="m 193.53419,147.98348 v 0.34106 h -3.206 q 0.0455,0.72002 0.43202,1.09898 0.39033,0.37517 1.08382,0.37517 0.4017,0 0.77687,-0.0985 0.37896,-0.0985 0.75034,-0.29558 v 0.65939 q -0.37517,0.15916 -0.76929,0.24253 -0.39412,0.0834 -0.7996,0.0834 -1.01562,0 -1.61058,-0.59118 -0.59118,-0.59117 -0.59118,-1.59921 0,-1.04214 0.56086,-1.65226 0.56465,-0.61392 1.51963,-0.61392 0.85645,0 1.35289,0.55328 0.50022,0.5495 0.50022,1.4969 z m -0.69728,-0.20464 q -0.008,-0.57223 -0.32212,-0.9133 -0.31074,-0.34106 -0.82613,-0.34106 -0.5836,0 -0.93603,0.32969 -0.34864,0.3297 -0.4017,0.92846 z"
               id="path10876" /><path
               d="m 197.37685,149.63574 h 1.25057 v -4.31635 l -1.36047,0.27285 v -0.69729 l 1.35289,-0.27285 h 0.7655 v 5.01364 h 1.25056 v 0.64423 h -3.25905 z"
               id="path10878" /></g><g
             id="g9222"
             style="fill:#4d4d4d"
             transform="matrix(1.6265445,0,0,1.8941561,158.96282,108.29438)"><path
               d="M 25,8.37 A 0.63,0.63 0 0 0 24.38,9 0.63,0.63 0 0 0 25.63,9 0.63,0.63 0 0 0 25,8.37 Z"
               id="path9216"
               style="fill:#4d4d4d" /><path
               d="M 27,8.37 A 0.63,0.63 0 0 0 26.38,9 0.63,0.63 0 0 0 27.63,9 0.63,0.63 0 0 0 27,8.37 Z"
               id="path9218"
               style="fill:#4d4d4d" /><path
               d="M 31,4.38 H 5 A 0.61,0.61 0 0 0 4.38,5 V 31 A 0.61,0.61 0 0 0 5,31.62 H 31 A 0.61,0.61 0 0 0 31.62,31 V 5 A 0.61,0.61 0 0 0 31,4.38 Z m -0.62,26 H 5.62 V 5.62 h 24.76 z"
               id="path9220"
               style="fill:#4d4d4d" /></g></g><g
           id="g10042"
           transform="translate(91.762715,58.098021)"><g
             id="g10053"
             transform="translate(8.9958322,1.5874998)"><g
               aria-label="Managed node 2"
               id="text10032"
               style="font-size:7.7611px;line-height:1.25;-inkscape-font-specification:sans-serif;text-align:center;letter-spacing:0px;word-spacing:0px;text-anchor:middle;stroke-width:0.264583"><path
                 d="m 170.84965,134.92073 h 1.14067 l 1.44384,3.85023 1.45142,-3.85023 h 1.14066 v 5.65787 h -0.74655 v -4.96817 l -1.45899,3.88055 h -0.76929 l -1.459,-3.88055 v 4.96817 h -0.74276 z"
                 id="path10881" /><path
                 d="m 179.44446,138.44505 q -0.84508,0 -1.17098,0.19327 -0.32591,0.19327 -0.32591,0.65939 0,0.37138 0.24254,0.59118 0.24632,0.21601 0.66697,0.21601 0.5798,0 0.92845,-0.40928 0.35243,-0.41307 0.35243,-1.09519 v -0.15538 z m 1.39079,-0.28801 v 2.42156 h -0.69729 v -0.64423 q -0.23874,0.38654 -0.59497,0.57223 -0.35622,0.1819 -0.87161,0.1819 -0.65181,0 -1.03835,-0.36381 -0.38274,-0.36759 -0.38274,-0.9815 0,-0.71624 0.47748,-1.08004 0.48128,-0.3638 1.43247,-0.3638 h 0.97772 v -0.0682 q 0,-0.48128 -0.31833,-0.74276 -0.31453,-0.26528 -0.88676,-0.26528 -0.3638,0 -0.70866,0.0872 -0.34485,0.0872 -0.66318,0.26148 v -0.64423 q 0.38275,-0.1478 0.74276,-0.2198 0.36002,-0.0758 0.70108,-0.0758 0.92087,0 1.37562,0.47749 0.45476,0.47749 0.45476,1.44762 z"
                 id="path10883" /><path
                 d="m 185.79962,138.01683 v 2.56177 h -0.69728 v -2.53903 q 0,-0.60255 -0.23496,-0.90193 -0.23496,-0.29938 -0.70487,-0.29938 -0.56465,0 -0.89055,0.36002 -0.32591,0.36001 -0.32591,0.9815 v 2.39882 h -0.70107 v -4.24435 h 0.70107 v 0.65939 q 0.25012,-0.38275 0.58739,-0.57223 0.34106,-0.18948 0.78445,-0.18948 0.73139,0 1.10656,0.45475 0.37517,0.45096 0.37517,1.33015 z"
                 id="path10885" /><path
                 d="m 189.11931,138.44505 q -0.84508,0 -1.17098,0.19327 -0.32591,0.19327 -0.32591,0.65939 0,0.37138 0.24253,0.59118 0.24633,0.21601 0.66697,0.21601 0.57981,0 0.92846,-0.40928 0.35243,-0.41307 0.35243,-1.09519 v -0.15538 z m 1.39078,-0.28801 v 2.42156 h -0.69728 v -0.64423 q -0.23875,0.38654 -0.59497,0.57223 -0.35622,0.1819 -0.87161,0.1819 -0.65181,0 -1.03835,-0.36381 -0.38275,-0.36759 -0.38275,-0.9815 0,-0.71624 0.47749,-1.08004 0.48128,-0.3638 1.43247,-0.3638 h 0.97772 v -0.0682 q 0,-0.48128 -0.31833,-0.74276 -0.31453,-0.26528 -0.88676,-0.26528 -0.36381,0 -0.70866,0.0872 -0.34485,0.0872 -0.66318,0.26148 v -0.64423 q 0.38275,-0.1478 0.74276,-0.2198 0.36001,-0.0758 0.70108,-0.0758 0.92087,0 1.37562,0.47749 0.45475,0.47749 0.45475,1.44762 z"
                 id="path10887" /><path
                 d="m 194.73929,138.40716 q 0,-0.75792 -0.31454,-1.17478 -0.31075,-0.41685 -0.8754,-0.41685 -0.56086,0 -0.87539,0.41685 -0.31075,0.41686 -0.31075,1.17478 0,0.75413 0.31075,1.17098 0.31453,0.41686 0.87539,0.41686 0.56465,0 0.8754,-0.41686 0.31454,-0.41685 0.31454,-1.17098 z m 0.69728,1.64468 q 0,1.08383 -0.48128,1.61058 -0.48127,0.53055 -1.47415,0.53055 -0.36759,0 -0.6935,-0.0568 -0.3259,-0.0531 -0.63286,-0.16674 v -0.67834 q 0.30696,0.16675 0.60634,0.24633 0.29938,0.0796 0.61012,0.0796 0.68592,0 1.02698,-0.36001 0.34107,-0.35623 0.34107,-1.08004 v -0.34485 q -0.21601,0.37517 -0.55328,0.56086 -0.33728,0.18569 -0.80719,0.18569 -0.78066,0 -1.25815,-0.59497 -0.47749,-0.59497 -0.47749,-1.57647 0,-0.9853 0.47749,-1.58027 0.47749,-0.59496 1.25815,-0.59496 0.46991,0 0.80719,0.18569 0.33727,0.18569 0.55328,0.56086 v -0.64423 h 0.69728 z"
                 id="path10889" /><path
                 d="m 200.50327,138.2821 v 0.34106 h -3.206 q 0.0455,0.72003 0.43201,1.09899 0.39033,0.37517 1.08383,0.37517 0.40169,0 0.77686,-0.0985 0.37896,-0.0985 0.75035,-0.29559 v 0.65939 q -0.37517,0.15916 -0.76929,0.24254 -0.39412,0.0834 -0.79961,0.0834 -1.01561,0 -1.61058,-0.59118 -0.59118,-0.59118 -0.59118,-1.59921 0,-1.04214 0.56086,-1.65227 0.56466,-0.61391 1.51963,-0.61391 0.85645,0 1.35289,0.55328 0.50023,0.54949 0.50023,1.49689 z m -0.69729,-0.20464 q -0.008,-0.57223 -0.32211,-0.91329 -0.31075,-0.34107 -0.82614,-0.34107 -0.58359,0 -0.93603,0.3297 -0.34864,0.3297 -0.4017,0.92845 z"
                 id="path10891" /><path
                 d="m 204.44066,136.97848 v -2.2965 h 0.69729 v 5.89662 h -0.69729 v -0.63665 q -0.2198,0.37896 -0.55707,0.56465 -0.33348,0.1819 -0.80339,0.1819 -0.76929,0 -1.25436,-0.61392 -0.48128,-0.61391 -0.48128,-1.61437 0,-1.00045 0.48128,-1.61437 0.48507,-0.61391 1.25436,-0.61391 0.46991,0 0.80339,0.18569 0.33727,0.1819 0.55707,0.56086 z m -2.37608,1.48173 q 0,0.76929 0.31454,1.20888 0.31833,0.43581 0.87161,0.43581 0.55328,0 0.87161,-0.43581 0.31832,-0.43959 0.31832,-1.20888 0,-0.76929 -0.31832,-1.20509 -0.31833,-0.43959 -0.87161,-0.43959 -0.55328,0 -0.87161,0.43959 -0.31454,0.4358 -0.31454,1.20509 z"
                 id="path10893" /><path
                 d="m 178.83813,147.7182 v 2.56177 h -0.69729 v -2.53903 q 0,-0.60255 -0.23495,-0.90192 -0.23496,-0.29938 -0.70487,-0.29938 -0.56465,0 -0.89056,0.36001 -0.3259,0.36001 -0.3259,0.98151 v 2.39881 h -0.70108 v -4.24435 h 0.70108 v 0.65939 q 0.25011,-0.38275 0.58739,-0.57223 0.34106,-0.18948 0.78444,-0.18948 0.7314,0 1.10657,0.45475 0.37517,0.45097 0.37517,1.33015 z"
                 id="path10895" /><path
                 d="m 181.8736,146.52448 q -0.56086,0 -0.88677,0.43959 -0.32591,0.43581 -0.32591,1.19752 0,0.76171 0.32212,1.2013 0.32591,0.4358 0.89056,0.4358 0.55707,0 0.88297,-0.43959 0.32591,-0.43959 0.32591,-1.19751 0,-0.75413 -0.32591,-1.19373 -0.3259,-0.44338 -0.88297,-0.44338 z m 0,-0.59118 q 0.9095,0 1.42868,0.59118 0.51917,0.59118 0.51917,1.63711 0,1.04214 -0.51917,1.6371 -0.51918,0.59118 -1.42868,0.59118 -0.9133,0 -1.43247,-0.59118 -0.51539,-0.59496 -0.51539,-1.6371 0,-1.04593 0.51539,-1.63711 0.51917,-0.59118 1.43247,-0.59118 z"
                 id="path10897" /><path
                 d="m 187.77021,146.67985 v -2.29649 h 0.69729 v 5.89661 h -0.69729 v -0.63665 q -0.21979,0.37896 -0.55707,0.56465 -0.33348,0.1819 -0.80339,0.1819 -0.76929,0 -1.25436,-0.61391 -0.48128,-0.61392 -0.48128,-1.61437 0,-1.00046 0.48128,-1.61437 0.48507,-0.61392 1.25436,-0.61392 0.46991,0 0.80339,0.18569 0.33728,0.1819 0.55707,0.56086 z m -2.37608,1.48174 q 0,0.76929 0.31454,1.20888 0.31833,0.4358 0.87161,0.4358 0.55328,0 0.87161,-0.4358 0.31832,-0.43959 0.31832,-1.20888 0,-0.76929 -0.31832,-1.2051 -0.31833,-0.43959 -0.87161,-0.43959 -0.55328,0 -0.87161,0.43959 -0.31454,0.43581 -0.31454,1.2051 z"
                 id="path10899" /><path
                 d="m 193.53419,147.98348 v 0.34106 h -3.206 q 0.0455,0.72002 0.43202,1.09898 0.39033,0.37517 1.08382,0.37517 0.4017,0 0.77687,-0.0985 0.37896,-0.0985 0.75034,-0.29558 v 0.65939 q -0.37517,0.15916 -0.76929,0.24253 -0.39412,0.0834 -0.7996,0.0834 -1.01562,0 -1.61058,-0.59118 -0.59118,-0.59117 -0.59118,-1.59921 0,-1.04214 0.56086,-1.65226 0.56465,-0.61392 1.51963,-0.61392 0.85645,0 1.35289,0.55328 0.50022,0.5495 0.50022,1.4969 z m -0.69728,-0.20464 q -0.008,-0.57223 -0.32212,-0.9133 -0.31074,-0.34106 -0.82613,-0.34106 -0.5836,0 -0.93603,0.32969 -0.34864,0.3297 -0.4017,0.92846 z"
                 id="path10901" /><path
                 d="m 197.9036,149.63574 h 2.67167 v 0.64423 h -3.59254 v -0.64423 q 0.4358,-0.45096 1.18614,-1.20888 0.75413,-0.76171 0.9474,-0.98151 0.3676,-0.41306 0.5116,-0.69728 0.14779,-0.28801 0.14779,-0.56465 0,-0.45097 -0.31832,-0.73519 -0.31454,-0.28422 -0.82234,-0.28422 -0.36002,0 -0.76171,0.12506 -0.39791,0.12506 -0.85266,0.37896 v -0.77308 q 0.46233,-0.18569 0.86402,-0.28043 0.4017,-0.0947 0.73519,-0.0947 0.87918,0 1.40215,0.4396 0.52296,0.43959 0.52296,1.17477 0,0.34864 -0.13263,0.66318 -0.12885,0.31075 -0.4737,0.73518 -0.0947,0.1099 -0.60255,0.63666 -0.50781,0.52296 -1.43247,1.46657 z"
                 id="path10903" /></g><g
               id="g10040"
               style="fill:#4d4d4d"
               transform="matrix(1.6265445,0,0,1.8941561,158.96282,108.29438)"><path
                 d="M 25,8.37 A 0.63,0.63 0 0 0 24.38,9 0.63,0.63 0 0 0 25.63,9 0.63,0.63 0 0 0 25,8.37 Z"
                 id="path10034"
                 style="fill:#4d4d4d" /><path
                 d="M 27,8.37 A 0.63,0.63 0 0 0 26.38,9 0.63,0.63 0 0 0 27.63,9 0.63,0.63 0 0 0 27,8.37 Z"
                 id="path10036"
                 style="fill:#4d4d4d" /><path
                 d="M 31,4.38 H 5 A 0.61,0.61 0 0 0 4.38,5 V 31 A 0.61,0.61 0 0 0 5,31.62 H 31 A 0.61,0.61 0 0 0 31.62,31 V 5 A 0.61,0.61 0 0 0 31,4.38 Z m -0.62,26 H 5.62 V 5.62 h 24.76 z"
                 id="path10038"
                 style="fill:#4d4d4d" /></g></g></g><g
           id="g10071"
           transform="translate(144.67962,112.07305)"><g
             id="g1465"><g
               aria-label="Managed node 3"
               id="text10059"
               style="font-size:7.7611px;line-height:1.25;-inkscape-font-specification:sans-serif;text-align:center;letter-spacing:0px;word-spacing:0px;text-anchor:middle;stroke-width:0.264583"
               transform="translate(8.9958322,1.5874998)"><path
                 d="m 170.84965,134.92073 h 1.14067 l 1.44384,3.85023 1.45142,-3.85023 h 1.14066 v 5.65787 h -0.74655 v -4.96817 l -1.45899,3.88055 h -0.76929 l -1.459,-3.88055 v 4.96817 h -0.74276 z"
                 id="path10906" /><path
                 d="m 179.44446,138.44505 q -0.84508,0 -1.17098,0.19327 -0.32591,0.19327 -0.32591,0.65939 0,0.37138 0.24254,0.59118 0.24632,0.21601 0.66697,0.21601 0.5798,0 0.92845,-0.40928 0.35243,-0.41307 0.35243,-1.09519 v -0.15538 z m 1.39079,-0.28801 v 2.42156 h -0.69729 v -0.64423 q -0.23874,0.38654 -0.59497,0.57223 -0.35622,0.1819 -0.87161,0.1819 -0.65181,0 -1.03835,-0.36381 -0.38274,-0.36759 -0.38274,-0.9815 0,-0.71624 0.47748,-1.08004 0.48128,-0.3638 1.43247,-0.3638 h 0.97772 v -0.0682 q 0,-0.48128 -0.31833,-0.74276 -0.31453,-0.26528 -0.88676,-0.26528 -0.3638,0 -0.70866,0.0872 -0.34485,0.0872 -0.66318,0.26148 v -0.64423 q 0.38275,-0.1478 0.74276,-0.2198 0.36002,-0.0758 0.70108,-0.0758 0.92087,0 1.37562,0.47749 0.45476,0.47749 0.45476,1.44762 z"
                 id="path10908" /><path
                 d="m 185.79962,138.01683 v 2.56177 h -0.69728 v -2.53903 q 0,-0.60255 -0.23496,-0.90193 -0.23496,-0.29938 -0.70487,-0.29938 -0.56465,0 -0.89055,0.36002 -0.32591,0.36001 -0.32591,0.9815 v 2.39882 h -0.70107 v -4.24435 h 0.70107 v 0.65939 q 0.25012,-0.38275 0.58739,-0.57223 0.34106,-0.18948 0.78445,-0.18948 0.73139,0 1.10656,0.45475 0.37517,0.45096 0.37517,1.33015 z"
                 id="path10910" /><path
                 d="m 189.11931,138.44505 q -0.84508,0 -1.17098,0.19327 -0.32591,0.19327 -0.32591,0.65939 0,0.37138 0.24253,0.59118 0.24633,0.21601 0.66697,0.21601 0.57981,0 0.92846,-0.40928 0.35243,-0.41307 0.35243,-1.09519 v -0.15538 z m 1.39078,-0.28801 v 2.42156 h -0.69728 v -0.64423 q -0.23875,0.38654 -0.59497,0.57223 -0.35622,0.1819 -0.87161,0.1819 -0.65181,0 -1.03835,-0.36381 -0.38275,-0.36759 -0.38275,-0.9815 0,-0.71624 0.47749,-1.08004 0.48128,-0.3638 1.43247,-0.3638 h 0.97772 v -0.0682 q 0,-0.48128 -0.31833,-0.74276 -0.31453,-0.26528 -0.88676,-0.26528 -0.36381,0 -0.70866,0.0872 -0.34485,0.0872 -0.66318,0.26148 v -0.64423 q 0.38275,-0.1478 0.74276,-0.2198 0.36001,-0.0758 0.70108,-0.0758 0.92087,0 1.37562,0.47749 0.45475,0.47749 0.45475,1.44762 z"
                 id="path10912" /><path
                 d="m 194.73929,138.40716 q 0,-0.75792 -0.31454,-1.17478 -0.31075,-0.41685 -0.8754,-0.41685 -0.56086,0 -0.87539,0.41685 -0.31075,0.41686 -0.31075,1.17478 0,0.75413 0.31075,1.17098 0.31453,0.41686 0.87539,0.41686 0.56465,0 0.8754,-0.41686 0.31454,-0.41685 0.31454,-1.17098 z m 0.69728,1.64468 q 0,1.08383 -0.48128,1.61058 -0.48127,0.53055 -1.47415,0.53055 -0.36759,0 -0.6935,-0.0568 -0.3259,-0.0531 -0.63286,-0.16674 v -0.67834 q 0.30696,0.16675 0.60634,0.24633 0.29938,0.0796 0.61012,0.0796 0.68592,0 1.02698,-0.36001 0.34107,-0.35623 0.34107,-1.08004 v -0.34485 q -0.21601,0.37517 -0.55328,0.56086 -0.33728,0.18569 -0.80719,0.18569 -0.78066,0 -1.25815,-0.59497 -0.47749,-0.59497 -0.47749,-1.57647 0,-0.9853 0.47749,-1.58027 0.47749,-0.59496 1.25815,-0.59496 0.46991,0 0.80719,0.18569 0.33727,0.18569 0.55328,0.56086 v -0.64423 h 0.69728 z"
                 id="path10914" /><path
                 d="m 200.50327,138.2821 v 0.34106 h -3.206 q 0.0455,0.72003 0.43201,1.09899 0.39033,0.37517 1.08383,0.37517 0.40169,0 0.77686,-0.0985 0.37896,-0.0985 0.75035,-0.29559 v 0.65939 q -0.37517,0.15916 -0.76929,0.24254 -0.39412,0.0834 -0.79961,0.0834 -1.01561,0 -1.61058,-0.59118 -0.59118,-0.59118 -0.59118,-1.59921 0,-1.04214 0.56086,-1.65227 0.56466,-0.61391 1.51963,-0.61391 0.85645,0 1.35289,0.55328 0.50023,0.54949 0.50023,1.49689 z m -0.69729,-0.20464 q -0.008,-0.57223 -0.32211,-0.91329 -0.31075,-0.34107 -0.82614,-0.34107 -0.58359,0 -0.93603,0.3297 -0.34864,0.3297 -0.4017,0.92845 z"
                 id="path10916" /><path
                 d="m 204.44066,136.97848 v -2.2965 h 0.69729 v 5.89662 h -0.69729 v -0.63665 q -0.2198,0.37896 -0.55707,0.56465 -0.33348,0.1819 -0.80339,0.1819 -0.76929,0 -1.25436,-0.61392 -0.48128,-0.61391 -0.48128,-1.61437 0,-1.00045 0.48128,-1.61437 0.48507,-0.61391 1.25436,-0.61391 0.46991,0 0.80339,0.18569 0.33727,0.1819 0.55707,0.56086 z m -2.37608,1.48173 q 0,0.76929 0.31454,1.20888 0.31833,0.43581 0.87161,0.43581 0.55328,0 0.87161,-0.43581 0.31832,-0.43959 0.31832,-1.20888 0,-0.76929 -0.31832,-1.20509 -0.31833,-0.43959 -0.87161,-0.43959 -0.55328,0 -0.87161,0.43959 -0.31454,0.4358 -0.31454,1.20509 z"
                 id="path10918" /><path
                 d="m 178.83813,147.7182 v 2.56177 h -0.69729 v -2.53903 q 0,-0.60255 -0.23495,-0.90192 -0.23496,-0.29938 -0.70487,-0.29938 -0.56465,0 -0.89056,0.36001 -0.3259,0.36001 -0.3259,0.98151 v 2.39881 h -0.70108 v -4.24435 h 0.70108 v 0.65939 q 0.25011,-0.38275 0.58739,-0.57223 0.34106,-0.18948 0.78444,-0.18948 0.7314,0 1.10657,0.45475 0.37517,0.45097 0.37517,1.33015 z"
                 id="path10920" /><path
                 d="m 181.8736,146.52448 q -0.56086,0 -0.88677,0.43959 -0.32591,0.43581 -0.32591,1.19752 0,0.76171 0.32212,1.2013 0.32591,0.4358 0.89056,0.4358 0.55707,0 0.88297,-0.43959 0.32591,-0.43959 0.32591,-1.19751 0,-0.75413 -0.32591,-1.19373 -0.3259,-0.44338 -0.88297,-0.44338 z m 0,-0.59118 q 0.9095,0 1.42868,0.59118 0.51917,0.59118 0.51917,1.63711 0,1.04214 -0.51917,1.6371 -0.51918,0.59118 -1.42868,0.59118 -0.9133,0 -1.43247,-0.59118 -0.51539,-0.59496 -0.51539,-1.6371 0,-1.04593 0.51539,-1.63711 0.51917,-0.59118 1.43247,-0.59118 z"
                 id="path10922" /><path
                 d="m 187.77021,146.67985 v -2.29649 h 0.69729 v 5.89661 h -0.69729 v -0.63665 q -0.21979,0.37896 -0.55707,0.56465 -0.33348,0.1819 -0.80339,0.1819 -0.76929,0 -1.25436,-0.61391 -0.48128,-0.61392 -0.48128,-1.61437 0,-1.00046 0.48128,-1.61437 0.48507,-0.61392 1.25436,-0.61392 0.46991,0 0.80339,0.18569 0.33728,0.1819 0.55707,0.56086 z m -2.37608,1.48174 q 0,0.76929 0.31454,1.20888 0.31833,0.4358 0.87161,0.4358 0.55328,0 0.87161,-0.4358 0.31832,-0.43959 0.31832,-1.20888 0,-0.76929 -0.31832,-1.2051 -0.31833,-0.43959 -0.87161,-0.43959 -0.55328,0 -0.87161,0.43959 -0.31454,0.43581 -0.31454,1.2051 z"
                 id="path10924" /><path
                 d="m 193.53419,147.98348 v 0.34106 h -3.206 q 0.0455,0.72002 0.43202,1.09898 0.39033,0.37517 1.08382,0.37517 0.4017,0 0.77687,-0.0985 0.37896,-0.0985 0.75034,-0.29558 v 0.65939 q -0.37517,0.15916 -0.76929,0.24253 -0.39412,0.0834 -0.7996,0.0834 -1.01562,0 -1.61058,-0.59118 -0.59118,-0.59117 -0.59118,-1.59921 0,-1.04214 0.56086,-1.65226 0.56465,-0.61392 1.51963,-0.61392 0.85645,0 1.35289,0.55328 0.50022,0.5495 0.50022,1.4969 z m -0.69728,-0.20464 q -0.008,-0.57223 -0.32212,-0.9133 -0.31074,-0.34106 -0.82613,-0.34106 -0.5836,0 -0.93603,0.32969 -0.34864,0.3297 -0.4017,0.92846 z"
                 id="path10926" /><g
                 aria-label="3"
                 id="text1395"
                 style="stroke-width:0.0700042"><path
                   d="m 199.62715,147.22002 q 0.54949,0.11748 0.85645,0.48886 0.31074,0.37138 0.31074,0.91708 0,0.8375 -0.57601,1.29604 -0.57602,0.45854 -1.63711,0.45854 -0.35622,0 -0.73518,-0.072 -0.37517,-0.0682 -0.77687,-0.20843 v -0.73897 q 0.31832,0.18569 0.69728,0.28043 0.37896,0.0947 0.79203,0.0947 0.72002,0 1.09519,-0.28422 0.37896,-0.28422 0.37896,-0.82613 0,-0.50023 -0.35243,-0.78066 -0.34864,-0.28422 -0.97392,-0.28422 h -0.6594 v -0.62907 h 0.68971 q 0.56465,0 0.86403,-0.22359 0.29938,-0.22737 0.29938,-0.65181 0,-0.4358 -0.31075,-0.66697 -0.30696,-0.23495 -0.88297,-0.23495 -0.31454,0 -0.67455,0.0682 -0.36002,0.0682 -0.79203,0.21222 v -0.68213 q 0.4358,-0.12127 0.81476,-0.1819 0.38275,-0.0606 0.72003,-0.0606 0.87161,0 1.37941,0.39791 0.50781,0.39412 0.50781,1.06867 0,0.46991 -0.26906,0.79581 -0.26906,0.32212 -0.7655,0.44718 z"
                   id="path1467" /></g></g><g
               id="g10067"
               style="fill:#4d4d4d"
               transform="matrix(1.6265445,0,0,1.8941561,167.95865,109.88188)"><path
                 d="M 25,8.37 A 0.63,0.63 0 0 0 24.38,9 0.63,0.63 0 0 0 25.63,9 0.63,0.63 0 0 0 25,8.37 Z"
                 id="path10061"
                 style="fill:#4d4d4d" /><path
                 d="M 27,8.37 A 0.63,0.63 0 0 0 26.38,9 0.63,0.63 0 0 0 27.63,9 0.63,0.63 0 0 0 27,8.37 Z"
                 id="path10063"
                 style="fill:#4d4d4d" /><path
                 d="M 31,4.38 H 5 A 0.61,0.61 0 0 0 4.38,5 V 31 A 0.61,0.61 0 0 0 5,31.62 H 31 A 0.61,0.61 0 0 0 31.62,31 V 5 A 0.61,0.61 0 0 0 31,4.38 Z m -0.62,26 H 5.62 V 5.62 h 24.76 z"
                 id="path10065"
                 style="fill:#4d4d4d" /></g></g></g><path
           style="fill:none;stroke:#4d4d4d;stroke-width:1.05833;stroke-linecap:butt;stroke-linejoin:miter;stroke-dasharray:none;stroke-opacity:1;marker-end:url(#RoundedArrow)"
           d="m 180.75356,107.25614 c 0.92352,153.38601 1.30815,153.66466 1.30815,153.66466 l 130.02933,0.22295"
           id="path10481" /></g></g><path
       style="fill:none;stroke:#4d4d4d;stroke-width:1.05833;stroke-linecap:butt;stroke-linejoin:miter;stroke-dasharray:none;stroke-opacity:1;marker-end:url(#marker10543)"
       d="m 169.02152,147.58012 25.60095,-0.16364"
       id="path10539" /><path
       style="fill:none;stroke:#4d4d4d;stroke-width:1.05833;stroke-linecap:butt;stroke-linejoin:miter;stroke-dasharray:none;stroke-opacity:1;marker-end:url(#marker10543)"
       d="m 169.64857,203.74287 76.63107,-0.11344"
       id="path10589" /></g></svg>
